<svg id="Layer_1" enable-background="new 0 0 512 512" viewBox="0 0 512 512" xmlns="http://www.w3.org/2000/svg"><g><g><path d="m296 486c-5.523 0-10-4.477-10-10v-80c0-5.523 4.477-10 10-10s10 4.477 10 10v80c0 5.523-4.477 10-10 10z"/></g><g><path d="m216 486c-5.523 0-10-4.477-10-10v-80c0-5.523 4.477-10 10-10s10 4.477 10 10v80c0 5.523-4.477 10-10 10z"/></g><g><path d="m256 486c-5.523 0-10-4.477-10-10v-80c0-5.523 4.477-10 10-10s10 4.477 10 10v80c0 5.523-4.477 10-10 10z"/></g><g><path d="m316 406h-120c-5.523 0-10-4.477-10-10s4.477-10 10-10h120c5.523 0 10 4.477 10 10s-4.477 10-10 10z"/></g><g><path d="m356 486c-5.523 0-10-4.477-10-10v-215.858l-90-90-90 90v215.858c0 5.523-4.477 10-10 10s-10-4.477-10-10v-220c0-2.652 1.054-5.196 2.929-7.071l100-100c3.905-3.905 10.237-3.905 14.143 0l100 100c1.875 1.875 2.929 4.419 2.929 7.071v220c-.001 5.523-4.478 10-10.001 10z"/></g><g><path d="m256 166c-5.523 0-10-4.477-10-10v-120c0-5.523 4.477-10 10-10h80c5.523 0 10 4.477 10 10v60c0 5.523-4.477 10-10 10h-70v50c0 5.523-4.477 10-10 10zm10-80h60v-40h-60z"/></g><g><path d="m502 266h-492c-5.523 0-10-4.477-10-10s4.477-10 10-10h492c5.523 0 10 4.477 10 10s-4.477 10-10 10z"/></g><g><path d="m502 486h-492c-5.523 0-10-4.477-10-10v-220c0-2.652 1.054-5.196 2.929-7.071l80-80c1.875-1.875 4.419-2.929 7.071-2.929h146c5.523 0 10 4.477 10 10s-4.477 10-10 10h-141.858l-74.142 74.142v205.858h472v-205.858l-74.142-74.142h-141.858c-5.523 0-10-4.477-10-10s4.477-10 10-10h146c2.652 0 5.196 1.054 7.071 2.929l80 80c1.875 1.875 2.929 4.419 2.929 7.071v220c0 5.523-4.477 10-10 10z"/></g><g><path d="m63 296h40v40h-40z"/></g><g><path d="m62 376h40v40h-40z"/></g><g><path d="m409 296h40v40h-40z"/></g><g><path d="m408 376h40v40h-40z"/></g><g><circle cx="256" cy="326" r="30"/></g></g></svg>