<?xml version="1.0" encoding="utf-8"?>
<!-- Generator: Adobe Illustrator 16.0.0, SVG Export Plug-In . SVG Version: 6.00 Build 0)  -->
<!DOCTYPE svg PUBLIC "-//W3C//DTD SVG 1.1//EN" "http://www.w3.org/Graphics/SVG/1.1/DTD/svg11.dtd">
<svg version="1.1" id="Capa_1" xmlns="http://www.w3.org/2000/svg" xmlns:xlink="http://www.w3.org/1999/xlink" x="0px" y="0px" viewBox="0 0 386.957 315.836" enable-background="new 0 0 386.957 315.836"
	 xml:space="preserve">
<path fill="#F7BF00" d="M168.604,295.713L16.44,178.01c-14.198-10.98-14.198-28.953,0-39.936L168.604,20.373
	c14.199-10.983,37.432-10.983,51.628,0l152.167,117.701c14.196,10.982,14.196,28.955,0,39.936L220.232,295.713
	C206.036,306.695,182.803,306.695,168.604,295.713"/>
<path fill="none" stroke="#000000" stroke-width="10.058" stroke-miterlimit="10" d="M194.42,290.752
	c-5.223,0-10.107-1.553-13.752-4.371L28.505,168.68c-7.582-5.865-7.582-15.408,0-21.273L180.67,29.706
	c3.643-2.82,8.527-4.372,13.75-4.372c5.223,0,10.104,1.552,13.748,4.372l152.166,117.701c7.582,5.865,7.582,15.408,0,21.273
	L208.168,286.381C204.523,289.2,199.643,290.752,194.42,290.752z"/>
<path d="M196.973,171.879l0.025-66.26h17.416c7.393,0,12.543,0.34,15.457,1.018c2.91,0.679,5.422,1.819,7.533,3.418
	c2.385,1.81,4.219,4.118,5.5,6.924c1.283,2.806,1.924,5.9,1.924,9.279c0,5.129-1.26,9.301-3.779,12.514s-6.193,5.349-11.02,6.404
	l24.264,26.704h-20.412l-21.414-25.934l1.383,25.934H196.973z M212.467,136.939h3.35c3.894,0,6.736-0.664,8.531-1.991
	c1.795-1.328,2.693-3.41,2.693-6.247c0-3.319-0.838-5.68-2.512-7.083c-1.674-1.403-4.488-2.104-8.441-2.104h-3.621V136.939
	L212.467,136.939z"/>
<path d="M248.418,106.004l21.406,65.875h21.15l-4.461-11.086h24.081l10.832,11.086h20.644l-70.846-65.875H248.418z M271.991,123.461
	l24.082,23.572h-15.164L271.991,123.461z"/>
<rect x="103.245" y="130.59" width="18.569" height="41.625"/>
<path d="M135.532,172.217v-66.598h18.479c7.619,0,12.941,0.243,15.968,0.728c3.025,0.485,5.629,1.319,7.811,2.502
	c2.488,1.365,4.385,3.192,5.691,5.481c1.305,2.29,1.957,4.936,1.957,7.938c0,3.792-0.975,6.801-2.926,9.03
	c-1.951,2.229-5.061,3.92-9.332,5.071c4.793,0.365,8.541,2.025,11.244,4.981c2.703,2.957,4.057,6.908,4.057,11.851
	c0,3.549-0.762,6.672-2.281,9.372c-1.521,2.698-3.695,4.793-6.521,6.276c-2.305,1.214-5.146,2.077-8.525,2.594
	c-3.379,0.517-8.908,0.772-16.588,0.772h-19.034V172.217z M152.583,132.23h3.687c4.545,0,7.665-0.492,9.354-1.479
	c1.688-0.985,2.535-2.691,2.535-5.117c0-2.517-0.791-4.284-2.373-5.3c-1.584-1.015-4.662-1.524-9.24-1.524h-3.963V132.23z
	 M152.583,158.616h6.451c4.363,0,7.449-0.54,9.262-1.616s2.721-2.873,2.721-5.391c0-2.789-0.83-4.738-2.49-5.846
	c-1.658-1.107-4.73-1.661-9.215-1.661h-6.728L152.583,158.616L152.583,158.616z"/>
<path fill="#FFFFFF" d="M74.631,223.879V223.5c-19.886-2.377-35.352-19.347-35.352-39.861V94.297H21.706
	c-3.726,0-7.017-1.992-8.588-5.2c-1.464-2.988-1.094-6.491,0.965-9.145l39.444-50.854c1.803-2.323,4.582-3.655,7.625-3.655
	c3.041,0,5.821,1.332,7.623,3.655l39.445,50.854c2.059,2.654,2.429,6.157,0.965,9.145c-1.572,3.208-4.863,5.2-8.588,5.2H84.408
	v72.727c0.466,6.221,5.44,11.225,11.657,11.727h295.347l-44.057,45.129H74.631L74.631,223.879z"/>
<path fill="#1B1B1B" d="M114.682,183.639H98.33h-2.445c-8.79-0.604-15.807-7.646-16.365-16.447v-2.27v-16.54V89.409h21.078
	c3.701,0,5.875-3.734,3.761-6.461l-19.098-24.62L64.912,32.095c-1.823-2.351-5.697-2.351-7.521,0L37.043,58.328l-19.098,24.62
	c-2.115,2.727,0.06,6.461,3.76,6.461h22.463v94.23c0,19.473,15.785,35.257,35.257,35.257c0.032,0,0.063-0.002,0.095-0.002v0.097
	h265.776l34.515-35.352H114.682z"/>
<path fill="none" stroke="#FFFFFF" stroke-width="3.265" stroke-linecap="round" stroke-miterlimit="10" stroke-dasharray="29.68,29.68" d="
	M338.208,202.165H96.347v-0.097H79.52c-0.063,0-0.126,0-0.189,0c-10.118-0.051-18.336-8.299-18.336-18.43V66.939"/>
<path fill="#BB0823" d="M121.815,115.864c0-5.128-4.157-9.286-9.285-9.286c-5.128,0-9.285,4.158-9.285,9.286
	c0,5.128,4.157,9.286,9.285,9.286C117.658,125.15,121.815,120.992,121.815,115.864"/>
<g enable-background="new    ">
	<path d="M160.084,244.333c0.026,0.19,0.038,0.341,0.036,0.452c-0.003,0.111-0.04,0.194-0.111,0.25
		c-0.072,0.056-0.189,0.09-0.353,0.103c-0.164,0.014-0.389,0.021-0.674,0.021c-0.201,0-0.365-0.004-0.492-0.012
		c-0.127-0.009-0.225-0.023-0.293-0.044c-0.069-0.021-0.117-0.053-0.143-0.096c-0.026-0.042-0.042-0.1-0.047-0.174l-0.278-2.063
		h-3.855l-1.063,2.015c-0.037,0.074-0.079,0.136-0.127,0.187c-0.047,0.05-0.116,0.089-0.206,0.115s-0.21,0.045-0.361,0.055
		c-0.151,0.011-0.34,0.017-0.567,0.017c-0.243,0-0.432-0.008-0.567-0.024c-0.135-0.016-0.225-0.054-0.27-0.114
		c-0.044-0.062-0.05-0.147-0.016-0.258c0.034-0.111,0.102-0.26,0.202-0.444l4.981-9.106c0.053-0.09,0.106-0.162,0.159-0.218
		s0.128-0.098,0.226-0.127c0.098-0.029,0.23-0.048,0.396-0.056s0.385-0.012,0.654-0.012c0.312,0,0.56,0.004,0.742,0.012
		c0.183,0.008,0.324,0.026,0.424,0.056c0.101,0.029,0.167,0.072,0.199,0.131c0.031,0.058,0.053,0.138,0.063,0.237L160.084,244.333z
		 M156.967,236.806h-0.008l-2.292,4.362h2.887L156.967,236.806z"/>
</g>
<g enable-background="new    ">
	<path d="M167.802,238.234c0,0.121-0.015,0.259-0.043,0.412c-0.029,0.153-0.067,0.299-0.115,0.437
		c-0.047,0.138-0.107,0.253-0.178,0.345c-0.071,0.093-0.149,0.139-0.234,0.139c-0.08,0-0.156-0.031-0.23-0.095
		c-0.074-0.063-0.165-0.135-0.273-0.214c-0.108-0.08-0.245-0.152-0.409-0.219c-0.164-0.065-0.375-0.099-0.634-0.099
		c-0.275,0-0.521,0.061-0.738,0.183c-0.217,0.121-0.406,0.278-0.567,0.472c-0.161,0.193-0.294,0.412-0.4,0.658
		s-0.193,0.494-0.262,0.745c-0.069,0.252-0.118,0.492-0.146,0.723c-0.029,0.229-0.044,0.43-0.044,0.599
		c0,0.428,0.094,0.754,0.282,0.976c0.188,0.222,0.482,0.333,0.884,0.333c0.296,0,0.55-0.038,0.762-0.115
		c0.211-0.076,0.393-0.161,0.543-0.254c0.151-0.092,0.28-0.176,0.389-0.249c0.108-0.074,0.208-0.111,0.298-0.111
		c0.053,0,0.091,0.023,0.115,0.071s0.036,0.116,0.036,0.206s-0.011,0.202-0.032,0.337s-0.049,0.271-0.083,0.409
		c-0.035,0.137-0.074,0.266-0.119,0.385c-0.045,0.118-0.103,0.213-0.174,0.281c-0.072,0.068-0.184,0.146-0.337,0.234
		c-0.153,0.087-0.331,0.165-0.531,0.233c-0.201,0.068-0.419,0.124-0.654,0.167c-0.235,0.042-0.48,0.063-0.734,0.063
		c-0.904,0-1.581-0.229-2.031-0.687c-0.449-0.457-0.674-1.133-0.674-2.026c0-0.322,0.031-0.677,0.091-1.063
		c0.061-0.386,0.16-0.773,0.297-1.162c0.138-0.389,0.316-0.765,0.536-1.13c0.219-0.365,0.488-0.688,0.805-0.968
		s0.685-0.505,1.103-0.674c0.417-0.17,0.899-0.254,1.444-0.254c0.211,0,0.417,0.016,0.619,0.047
		c0.201,0.032,0.386,0.076,0.555,0.131c0.169,0.056,0.318,0.121,0.448,0.194c0.129,0.074,0.226,0.142,0.29,0.203
		c0.063,0.061,0.104,0.114,0.123,0.162S167.802,238.165,167.802,238.234z"/>
</g>
<g enable-background="new    ">
	<path d="M174.455,244.849c-0.021,0.111-0.104,0.19-0.25,0.238c-0.146,0.047-0.379,0.071-0.702,0.071
		c-0.164,0-0.297-0.006-0.4-0.017c-0.103-0.01-0.187-0.027-0.25-0.051c-0.063-0.024-0.104-0.056-0.123-0.096
		c-0.019-0.039-0.022-0.088-0.012-0.146l0.222-1.135c-0.08,0.17-0.207,0.349-0.381,0.536s-0.381,0.358-0.619,0.512
		s-0.501,0.28-0.789,0.38c-0.289,0.101-0.586,0.151-0.893,0.151c-0.423,0-0.775-0.074-1.055-0.223
		c-0.28-0.147-0.505-0.348-0.674-0.599c-0.169-0.251-0.29-0.538-0.361-0.86c-0.071-0.322-0.107-0.661-0.107-1.016
		c0-0.333,0.032-0.696,0.095-1.091c0.063-0.394,0.161-0.786,0.293-1.178s0.302-0.768,0.508-1.13s0.453-0.684,0.742-0.964
		c0.288-0.28,0.619-0.504,0.991-0.671c0.373-0.166,0.794-0.249,1.265-0.249c0.439,0,0.828,0.091,1.167,0.273
		c0.338,0.183,0.634,0.448,0.888,0.797l0.127-0.627c0.021-0.11,0.104-0.189,0.25-0.237c0.145-0.048,0.379-0.071,0.702-0.071
		c0.159,0,0.291,0.007,0.397,0.02c0.105,0.014,0.189,0.031,0.25,0.056c0.061,0.023,0.102,0.056,0.123,0.095
		c0.021,0.04,0.026,0.086,0.016,0.139L174.455,244.849z M173.471,239.883c-0.185-0.29-0.39-0.509-0.615-0.654
		s-0.485-0.218-0.781-0.218c-0.222,0-0.426,0.053-0.611,0.158c-0.185,0.106-0.349,0.247-0.492,0.425
		c-0.143,0.177-0.269,0.382-0.377,0.614c-0.108,0.233-0.198,0.475-0.27,0.727c-0.071,0.251-0.124,0.505-0.159,0.761
		c-0.034,0.257-0.051,0.493-0.051,0.71c0,0.159,0.012,0.31,0.036,0.452c0.023,0.143,0.067,0.27,0.131,0.381s0.148,0.2,0.254,0.266
		c0.105,0.066,0.24,0.1,0.404,0.1c0.233,0,0.471-0.07,0.714-0.211c0.243-0.14,0.471-0.33,0.682-0.57
		c0.211-0.241,0.398-0.521,0.56-0.841c0.161-0.32,0.279-0.663,0.353-1.027L173.471,239.883z"/>
	<path d="M183.037,244.849c-0.021,0.111-0.104,0.19-0.25,0.238c-0.146,0.047-0.379,0.071-0.702,0.071
		c-0.164,0-0.298-0.006-0.401-0.017c-0.103-0.01-0.187-0.027-0.25-0.051c-0.063-0.024-0.104-0.056-0.123-0.096
		c-0.019-0.039-0.023-0.088-0.012-0.146l0.214-1.135c-0.08,0.17-0.207,0.349-0.381,0.536s-0.381,0.359-0.619,0.516
		c-0.238,0.155-0.501,0.282-0.789,0.381c-0.289,0.098-0.586,0.146-0.893,0.146c-0.301,0-0.564-0.039-0.789-0.115
		c-0.225-0.076-0.418-0.181-0.579-0.313c-0.162-0.132-0.295-0.288-0.401-0.468c-0.105-0.18-0.19-0.37-0.253-0.571
		s-0.109-0.408-0.135-0.622c-0.026-0.215-0.04-0.425-0.04-0.631c0-0.344,0.032-0.713,0.095-1.106
		c0.063-0.395,0.163-0.785,0.297-1.174s0.306-0.763,0.512-1.123c0.206-0.359,0.454-0.677,0.742-0.951
		c0.288-0.275,0.619-0.495,0.992-0.659c0.373-0.163,0.792-0.245,1.257-0.245c0.207,0,0.403,0.022,0.591,0.067
		c0.188,0.045,0.359,0.105,0.516,0.182c0.156,0.077,0.297,0.168,0.424,0.274c0.127,0.105,0.235,0.217,0.325,0.333l0.753-3.736
		c0.011-0.053,0.034-0.101,0.071-0.143s0.097-0.078,0.179-0.107c0.082-0.028,0.188-0.052,0.317-0.067
		c0.129-0.016,0.292-0.023,0.488-0.023c0.195,0,0.355,0.008,0.479,0.023c0.125,0.016,0.221,0.039,0.29,0.067
		c0.069,0.029,0.114,0.065,0.135,0.107c0.021,0.042,0.026,0.09,0.016,0.143L183.037,244.849z M182.045,239.891
		c-0.185-0.29-0.39-0.51-0.615-0.658c-0.225-0.147-0.485-0.222-0.781-0.222c-0.217,0-0.417,0.052-0.599,0.154
		c-0.183,0.104-0.347,0.241-0.492,0.413s-0.272,0.372-0.38,0.603c-0.108,0.229-0.198,0.472-0.27,0.726
		c-0.071,0.254-0.125,0.508-0.163,0.762s-0.055,0.494-0.055,0.722c0,0.402,0.066,0.705,0.198,0.908
		c0.132,0.204,0.341,0.306,0.626,0.306c0.233,0,0.471-0.07,0.714-0.211c0.243-0.14,0.471-0.327,0.682-0.563s0.398-0.513,0.56-0.833
		c0.161-0.32,0.279-0.662,0.353-1.027L182.045,239.891z"/>
	<path d="M192.405,239.321c0,0.38-0.086,0.723-0.258,1.026c-0.172,0.305-0.439,0.566-0.801,0.786
		c-0.362,0.219-0.822,0.387-1.38,0.503c-0.558,0.117-1.223,0.175-1.995,0.175h-0.729c-0.021,0.122-0.037,0.242-0.048,0.361
		c-0.01,0.118-0.016,0.229-0.016,0.329c0,0.428,0.111,0.751,0.333,0.968s0.579,0.325,1.071,0.325c0.349,0,0.663-0.025,0.94-0.075
		c0.278-0.051,0.521-0.106,0.73-0.167s0.382-0.116,0.52-0.167c0.137-0.05,0.238-0.075,0.301-0.075s0.108,0.019,0.135,0.056
		s0.04,0.096,0.04,0.175c0,0.09-0.008,0.192-0.024,0.31c-0.016,0.116-0.039,0.23-0.067,0.345c-0.029,0.113-0.066,0.221-0.111,0.321
		s-0.096,0.177-0.154,0.229c-0.063,0.063-0.18,0.127-0.349,0.19c-0.169,0.063-0.373,0.122-0.611,0.175s-0.505,0.097-0.801,0.131
		c-0.296,0.034-0.598,0.052-0.904,0.052c-0.507,0-0.951-0.053-1.329-0.159c-0.378-0.105-0.694-0.267-0.948-0.483
		s-0.444-0.493-0.571-0.829s-0.19-0.733-0.19-1.193c0-0.354,0.033-0.734,0.1-1.139c0.066-0.404,0.173-0.804,0.321-1.197
		c0.148-0.395,0.338-0.771,0.571-1.131s0.514-0.676,0.845-0.948c0.331-0.271,0.712-0.49,1.146-0.654
		c0.433-0.163,0.928-0.245,1.483-0.245c0.481,0,0.895,0.057,1.242,0.17c0.346,0.114,0.63,0.265,0.853,0.452s0.387,0.402,0.496,0.643
		C192.351,238.82,192.405,239.067,192.405,239.321z M190.446,239.471c0-0.212-0.083-0.388-0.25-0.527
		c-0.167-0.141-0.408-0.21-0.726-0.21c-0.265,0-0.501,0.047-0.71,0.143c-0.209,0.095-0.393,0.224-0.551,0.385
		s-0.295,0.352-0.409,0.57c-0.114,0.22-0.205,0.454-0.273,0.702h0.666c0.423,0,0.777-0.027,1.063-0.083s0.516-0.131,0.69-0.226
		c0.175-0.096,0.302-0.208,0.381-0.338C190.406,239.758,190.446,239.62,190.446,239.471z"/>
	<path d="M204.113,244.841c-0.012,0.053-0.037,0.099-0.076,0.139s-0.102,0.072-0.187,0.1c-0.085,0.026-0.191,0.046-0.321,0.059
		c-0.129,0.014-0.292,0.021-0.488,0.021c-0.189,0-0.348-0.007-0.475-0.021c-0.127-0.013-0.226-0.032-0.294-0.059
		c-0.069-0.027-0.115-0.06-0.14-0.1c-0.023-0.04-0.027-0.086-0.012-0.139l0.85-4.244c0.021-0.121,0.039-0.241,0.055-0.36
		s0.024-0.239,0.024-0.361c0-0.248-0.046-0.449-0.14-0.603c-0.092-0.153-0.258-0.23-0.495-0.23c-0.212,0-0.431,0.069-0.658,0.206
		c-0.228,0.138-0.446,0.324-0.654,0.56c-0.209,0.235-0.394,0.511-0.556,0.825c-0.161,0.314-0.276,0.649-0.345,1.003l-0.643,3.205
		c-0.011,0.053-0.036,0.099-0.075,0.139c-0.04,0.04-0.102,0.072-0.187,0.1c-0.085,0.026-0.192,0.046-0.321,0.059
		c-0.13,0.014-0.293,0.021-0.488,0.021c-0.189,0-0.348-0.007-0.472-0.021c-0.124-0.013-0.221-0.032-0.29-0.059
		c-0.068-0.027-0.114-0.06-0.139-0.1c-0.023-0.04-0.029-0.086-0.02-0.139l0.841-4.244c0.032-0.121,0.054-0.247,0.067-0.377
		c0.014-0.129,0.02-0.255,0.02-0.376c0-0.233-0.047-0.425-0.143-0.575c-0.095-0.151-0.259-0.227-0.492-0.227
		c-0.211,0-0.43,0.069-0.658,0.206c-0.227,0.138-0.445,0.324-0.654,0.56s-0.394,0.511-0.555,0.825
		c-0.162,0.314-0.276,0.649-0.346,1.003l-0.643,3.205c-0.01,0.053-0.035,0.099-0.074,0.139c-0.04,0.04-0.102,0.072-0.184,0.1
		c-0.082,0.026-0.188,0.046-0.32,0.059c-0.133,0.014-0.294,0.021-0.484,0.021c-0.195,0-0.355-0.007-0.479-0.021
		c-0.125-0.013-0.222-0.032-0.293-0.059c-0.072-0.027-0.118-0.06-0.139-0.1s-0.026-0.086-0.016-0.139l1.42-7.084
		c0.01-0.053,0.033-0.099,0.067-0.139c0.034-0.039,0.087-0.071,0.159-0.095c0.07-0.024,0.163-0.042,0.277-0.056
		c0.113-0.013,0.25-0.02,0.408-0.02c0.164,0,0.297,0.007,0.4,0.02c0.104,0.014,0.184,0.031,0.242,0.056
		c0.059,0.023,0.096,0.056,0.115,0.095c0.018,0.04,0.021,0.086,0.012,0.139l-0.23,1.166c0.111-0.185,0.26-0.374,0.444-0.566
		c0.185-0.193,0.396-0.366,0.631-0.52s0.491-0.279,0.769-0.377c0.278-0.098,0.564-0.146,0.861-0.146
		c0.307,0,0.572,0.041,0.797,0.122c0.225,0.082,0.41,0.196,0.556,0.342s0.257,0.315,0.333,0.512
		c0.076,0.195,0.125,0.407,0.146,0.634c0.122-0.189,0.276-0.38,0.465-0.57c0.188-0.19,0.398-0.362,0.635-0.516
		c0.234-0.153,0.49-0.279,0.765-0.377s0.558-0.146,0.849-0.146c0.37,0,0.682,0.051,0.932,0.154c0.252,0.104,0.454,0.246,0.607,0.429
		c0.153,0.182,0.264,0.396,0.333,0.643c0.069,0.245,0.103,0.511,0.103,0.797c0,0.185-0.01,0.371-0.031,0.559
		c-0.021,0.188-0.053,0.38-0.095,0.575L204.113,244.841z"/>
	<path d="M208.063,244.841c-0.011,0.053-0.035,0.099-0.075,0.139s-0.101,0.072-0.183,0.1c-0.082,0.026-0.189,0.046-0.321,0.059
		c-0.132,0.014-0.294,0.021-0.483,0.021c-0.195,0-0.355-0.007-0.48-0.021c-0.124-0.013-0.222-0.032-0.293-0.059
		c-0.072-0.027-0.118-0.06-0.139-0.1c-0.021-0.04-0.027-0.086-0.016-0.139l1.403-7.06c0.011-0.053,0.036-0.1,0.075-0.139
		c0.04-0.04,0.101-0.074,0.183-0.104s0.188-0.052,0.317-0.067c0.129-0.016,0.292-0.023,0.488-0.023c0.195,0,0.355,0.008,0.479,0.023
		s0.222,0.038,0.294,0.067c0.07,0.029,0.117,0.063,0.139,0.104c0.021,0.039,0.025,0.086,0.016,0.139L208.063,244.841z
		 M210.109,235.386c-0.037,0.195-0.088,0.36-0.15,0.495c-0.064,0.136-0.148,0.244-0.254,0.325c-0.106,0.083-0.236,0.141-0.389,0.175
		c-0.154,0.034-0.344,0.052-0.572,0.052c-0.221,0-0.402-0.018-0.543-0.052c-0.14-0.034-0.246-0.092-0.316-0.175
		c-0.072-0.081-0.113-0.189-0.123-0.325c-0.012-0.135,0.005-0.3,0.047-0.495c0.037-0.19,0.088-0.352,0.15-0.484
		c0.064-0.132,0.148-0.24,0.254-0.325c0.105-0.084,0.236-0.146,0.389-0.182c0.154-0.037,0.344-0.056,0.572-0.056
		c0.221,0,0.402,0.019,0.543,0.056c0.14,0.036,0.246,0.098,0.316,0.182c0.072,0.085,0.111,0.193,0.119,0.325
		C210.16,235.035,210.146,235.196,210.109,235.386z"/>
	<path d="M216.63,244.849c-0.021,0.111-0.104,0.19-0.25,0.238c-0.146,0.047-0.38,0.071-0.702,0.071c-0.164,0-0.297-0.006-0.4-0.017
		c-0.104-0.01-0.187-0.027-0.25-0.051c-0.063-0.024-0.104-0.056-0.123-0.096c-0.019-0.039-0.022-0.088-0.012-0.146l0.223-1.135
		c-0.08,0.17-0.207,0.349-0.381,0.536c-0.175,0.188-0.381,0.358-0.619,0.512s-0.501,0.28-0.789,0.38
		c-0.289,0.101-0.586,0.151-0.893,0.151c-0.424,0-0.775-0.074-1.055-0.223c-0.281-0.147-0.506-0.348-0.674-0.599
		c-0.17-0.251-0.29-0.538-0.361-0.86c-0.072-0.322-0.107-0.661-0.107-1.016c0-0.333,0.031-0.696,0.096-1.091
		c0.063-0.394,0.16-0.786,0.293-1.178s0.302-0.768,0.508-1.13s0.453-0.684,0.742-0.964c0.287-0.28,0.618-0.504,0.99-0.671
		c0.373-0.166,0.795-0.249,1.266-0.249c0.439,0,0.828,0.091,1.166,0.273s0.635,0.448,0.889,0.797l0.127-0.627
		c0.021-0.11,0.104-0.189,0.25-0.237c0.145-0.048,0.379-0.071,0.701-0.071c0.159,0,0.291,0.007,0.397,0.02
		c0.105,0.014,0.188,0.031,0.249,0.056c0.062,0.023,0.103,0.056,0.123,0.095c0.021,0.04,0.027,0.086,0.017,0.139L216.63,244.849z
		 M215.646,239.883c-0.186-0.29-0.391-0.509-0.615-0.654s-0.484-0.218-0.781-0.218c-0.223,0-0.426,0.053-0.611,0.158
		c-0.185,0.106-0.348,0.247-0.491,0.425c-0.143,0.177-0.269,0.382-0.377,0.614c-0.108,0.233-0.198,0.475-0.27,0.727
		c-0.071,0.251-0.124,0.505-0.159,0.761c-0.033,0.257-0.051,0.493-0.051,0.71c0,0.159,0.012,0.31,0.035,0.452
		s0.068,0.27,0.131,0.381c0.064,0.111,0.148,0.2,0.254,0.266c0.105,0.066,0.24,0.1,0.404,0.1c0.233,0,0.471-0.07,0.715-0.211
		c0.242-0.14,0.471-0.33,0.682-0.57c0.211-0.241,0.398-0.521,0.56-0.841c0.161-0.32,0.278-0.663,0.353-1.027L215.646,239.883z"/>
	<path d="M228.885,244.849c-0.021,0.111-0.104,0.19-0.25,0.238c-0.146,0.047-0.379,0.071-0.701,0.071
		c-0.164,0-0.299-0.006-0.401-0.017c-0.103-0.01-0.187-0.027-0.25-0.051c-0.063-0.024-0.104-0.056-0.122-0.096
		c-0.02-0.039-0.023-0.088-0.013-0.146l0.214-1.135c-0.079,0.17-0.206,0.349-0.381,0.536c-0.174,0.188-0.381,0.359-0.618,0.516
		c-0.237,0.155-0.501,0.282-0.789,0.381c-0.288,0.098-0.586,0.146-0.893,0.146c-0.302,0-0.564-0.039-0.789-0.115
		c-0.226-0.076-0.418-0.181-0.579-0.313c-0.162-0.132-0.295-0.288-0.4-0.468s-0.19-0.37-0.254-0.571s-0.109-0.408-0.135-0.622
		c-0.027-0.215-0.04-0.425-0.04-0.631c0-0.344,0.032-0.713,0.095-1.106c0.064-0.395,0.163-0.785,0.298-1.174
		s0.306-0.763,0.512-1.123c0.206-0.359,0.454-0.677,0.741-0.951c0.289-0.275,0.619-0.495,0.992-0.659
		c0.373-0.163,0.791-0.245,1.257-0.245c0.206,0,0.403,0.022,0.591,0.067s0.359,0.105,0.516,0.182
		c0.156,0.077,0.298,0.168,0.425,0.274c0.127,0.105,0.235,0.217,0.325,0.333l0.754-3.736c0.01-0.053,0.033-0.101,0.07-0.143
		s0.098-0.078,0.18-0.107c0.082-0.028,0.188-0.052,0.316-0.067c0.13-0.016,0.293-0.023,0.488-0.023s0.355,0.008,0.479,0.023
		s0.222,0.039,0.29,0.067c0.068,0.029,0.113,0.065,0.135,0.107s0.026,0.09,0.016,0.143L228.885,244.849z M227.893,239.891
		c-0.185-0.29-0.39-0.51-0.614-0.658c-0.225-0.147-0.485-0.222-0.781-0.222c-0.217,0-0.417,0.052-0.599,0.154
		c-0.183,0.104-0.347,0.241-0.492,0.413s-0.271,0.372-0.381,0.603c-0.107,0.229-0.197,0.472-0.27,0.726
		c-0.071,0.254-0.125,0.508-0.162,0.762s-0.056,0.494-0.056,0.722c0,0.402,0.065,0.705,0.198,0.908
		c0.132,0.204,0.341,0.306,0.627,0.306c0.232,0,0.471-0.07,0.713-0.211c0.244-0.14,0.471-0.327,0.683-0.563s0.397-0.513,0.56-0.833
		c0.161-0.32,0.279-0.662,0.353-1.027L227.893,239.891z"/>
	<path d="M238.252,239.321c0,0.38-0.086,0.723-0.258,1.026c-0.172,0.305-0.438,0.566-0.801,0.786
		c-0.361,0.219-0.822,0.387-1.38,0.503c-0.558,0.117-1.223,0.175-1.995,0.175h-0.729c-0.021,0.122-0.037,0.242-0.048,0.361
		c-0.01,0.118-0.016,0.229-0.016,0.329c0,0.428,0.111,0.751,0.333,0.968s0.579,0.325,1.071,0.325c0.349,0,0.662-0.025,0.939-0.075
		c0.277-0.051,0.521-0.106,0.73-0.167s0.381-0.116,0.52-0.167c0.137-0.05,0.237-0.075,0.301-0.075s0.108,0.019,0.135,0.056
		s0.04,0.096,0.04,0.175c0,0.09-0.009,0.192-0.024,0.31c-0.016,0.116-0.038,0.23-0.066,0.345c-0.029,0.113-0.066,0.221-0.111,0.321
		s-0.097,0.177-0.154,0.229c-0.064,0.063-0.181,0.127-0.35,0.19c-0.17,0.063-0.373,0.122-0.611,0.175
		c-0.237,0.053-0.504,0.097-0.801,0.131c-0.296,0.034-0.598,0.052-0.904,0.052c-0.508,0-0.951-0.053-1.328-0.159
		c-0.379-0.105-0.694-0.267-0.948-0.483s-0.444-0.493-0.571-0.829s-0.19-0.733-0.19-1.193c0-0.354,0.033-0.734,0.1-1.139
		c0.065-0.404,0.173-0.804,0.321-1.197c0.148-0.395,0.338-0.771,0.57-1.131c0.233-0.359,0.515-0.676,0.846-0.948
		c0.33-0.271,0.712-0.49,1.146-0.654c0.433-0.163,0.928-0.245,1.482-0.245c0.481,0,0.895,0.057,1.242,0.17
		c0.346,0.114,0.63,0.265,0.852,0.452c0.223,0.188,0.388,0.402,0.496,0.643C238.198,238.82,238.252,239.067,238.252,239.321z
		 M236.293,239.471c0-0.212-0.083-0.388-0.25-0.527c-0.166-0.141-0.408-0.21-0.725-0.21c-0.266,0-0.502,0.047-0.711,0.143
		c-0.209,0.095-0.393,0.224-0.551,0.385s-0.295,0.352-0.408,0.57c-0.114,0.22-0.205,0.454-0.273,0.702h0.666
		c0.423,0,0.777-0.027,1.063-0.083s0.516-0.131,0.689-0.226c0.176-0.096,0.303-0.208,0.381-0.338
		C236.254,239.758,236.293,239.62,236.293,239.471z"/>
</g>
<g enable-background="new    ">
	<path d="M175.064,253.374c0,0.121-0.015,0.259-0.043,0.412c-0.029,0.153-0.067,0.299-0.115,0.437
		c-0.047,0.138-0.107,0.253-0.178,0.345c-0.071,0.093-0.149,0.139-0.234,0.139c-0.08,0-0.156-0.031-0.23-0.095
		c-0.074-0.063-0.165-0.135-0.273-0.214c-0.108-0.08-0.245-0.152-0.409-0.219c-0.164-0.065-0.375-0.099-0.634-0.099
		c-0.275,0-0.521,0.061-0.738,0.183c-0.217,0.121-0.406,0.278-0.567,0.472c-0.161,0.193-0.294,0.412-0.4,0.658
		s-0.193,0.494-0.262,0.745c-0.069,0.252-0.118,0.492-0.146,0.723c-0.029,0.229-0.044,0.43-0.044,0.599
		c0,0.428,0.094,0.754,0.282,0.976c0.188,0.222,0.482,0.333,0.884,0.333c0.296,0,0.55-0.038,0.762-0.115
		c0.211-0.076,0.393-0.161,0.543-0.254c0.151-0.092,0.28-0.176,0.389-0.249c0.108-0.074,0.208-0.111,0.298-0.111
		c0.053,0,0.091,0.023,0.115,0.071s0.036,0.116,0.036,0.206s-0.011,0.202-0.032,0.337s-0.049,0.271-0.083,0.409
		c-0.035,0.137-0.074,0.266-0.119,0.385c-0.045,0.118-0.103,0.213-0.174,0.281c-0.072,0.068-0.184,0.146-0.337,0.234
		c-0.153,0.087-0.331,0.165-0.531,0.233c-0.201,0.068-0.419,0.124-0.654,0.167c-0.235,0.042-0.48,0.063-0.734,0.063
		c-0.904,0-1.581-0.229-2.031-0.687c-0.449-0.457-0.674-1.133-0.674-2.026c0-0.322,0.031-0.677,0.091-1.063
		c0.061-0.386,0.16-0.773,0.297-1.162c0.138-0.389,0.316-0.765,0.536-1.13c0.219-0.365,0.488-0.688,0.805-0.968
		s0.685-0.505,1.103-0.674c0.417-0.17,0.899-0.254,1.444-0.254c0.211,0,0.417,0.016,0.619,0.047
		c0.201,0.032,0.386,0.076,0.555,0.131c0.169,0.056,0.318,0.121,0.448,0.194c0.129,0.074,0.226,0.142,0.29,0.203
		c0.063,0.061,0.104,0.114,0.123,0.162S175.064,253.304,175.064,253.374z"/>
	<path d="M181.87,259.981c-0.011,0.053-0.036,0.099-0.075,0.139c-0.04,0.04-0.101,0.072-0.183,0.1
		c-0.082,0.026-0.188,0.046-0.317,0.059c-0.129,0.014-0.295,0.021-0.496,0.021c-0.19,0-0.348-0.007-0.472-0.021
		c-0.124-0.013-0.221-0.032-0.29-0.059c-0.069-0.027-0.115-0.06-0.139-0.1s-0.03-0.086-0.02-0.139l0.849-4.244
		c0.021-0.11,0.04-0.236,0.055-0.377c0.016-0.14,0.024-0.266,0.024-0.376c0-0.116-0.012-0.224-0.036-0.321s-0.062-0.183-0.115-0.254
		c-0.053-0.071-0.122-0.127-0.206-0.167c-0.084-0.039-0.185-0.06-0.301-0.06c-0.217,0-0.443,0.069-0.678,0.206
		c-0.235,0.138-0.458,0.325-0.667,0.563s-0.396,0.516-0.559,0.833c-0.164,0.317-0.28,0.653-0.349,1.008l-0.643,3.188
		c-0.011,0.053-0.036,0.099-0.075,0.139s-0.101,0.072-0.183,0.1c-0.082,0.026-0.189,0.046-0.321,0.059
		c-0.132,0.014-0.293,0.021-0.484,0.021c-0.195,0-0.355-0.007-0.479-0.021c-0.125-0.013-0.222-0.032-0.293-0.059
		c-0.072-0.027-0.118-0.06-0.139-0.1s-0.026-0.086-0.016-0.139l2.086-10.431c0.011-0.053,0.035-0.101,0.071-0.143
		c0.037-0.043,0.098-0.078,0.183-0.107s0.191-0.052,0.321-0.067c0.129-0.016,0.292-0.024,0.488-0.024s0.355,0.009,0.48,0.024
		c0.124,0.016,0.221,0.038,0.29,0.067c0.068,0.029,0.114,0.064,0.135,0.107c0.021,0.042,0.026,0.09,0.016,0.143l-0.563,2.871
		c-0.026,0.116-0.056,0.241-0.087,0.373s-0.067,0.263-0.107,0.393s-0.079,0.255-0.119,0.377c-0.04,0.121-0.078,0.229-0.115,0.325
		c0.1-0.169,0.238-0.339,0.413-0.508c0.174-0.169,0.374-0.322,0.599-0.46s0.468-0.25,0.73-0.337c0.262-0.088,0.53-0.131,0.805-0.131
		c0.359,0,0.664,0.05,0.912,0.15s0.452,0.24,0.611,0.42c0.158,0.181,0.273,0.395,0.345,0.643c0.071,0.249,0.107,0.521,0.107,0.817
		c0,0.19-0.011,0.38-0.032,0.567c-0.021,0.188-0.051,0.374-0.087,0.559L181.87,259.981z"/>
	<path d="M191.634,255.285c0,0.381-0.036,0.772-0.107,1.174c-0.072,0.402-0.184,0.795-0.337,1.179
		c-0.153,0.383-0.35,0.742-0.591,1.078s-0.529,0.632-0.865,0.889s-0.721,0.459-1.154,0.606c-0.434,0.148-0.923,0.223-1.468,0.223
		c-0.534,0-0.996-0.063-1.384-0.187s-0.712-0.307-0.972-0.548c-0.259-0.24-0.452-0.536-0.579-0.888s-0.19-0.755-0.19-1.21
		c0-0.381,0.036-0.771,0.107-1.174s0.184-0.793,0.337-1.174s0.351-0.742,0.591-1.083c0.24-0.341,0.529-0.639,0.864-0.893
		c0.336-0.254,0.721-0.454,1.154-0.603s0.923-0.222,1.467-0.222c0.534,0,0.996,0.062,1.384,0.186
		c0.389,0.125,0.712,0.308,0.972,0.548s0.452,0.537,0.579,0.889S191.634,254.831,191.634,255.285z M189.572,255.419
		c0-0.222-0.022-0.419-0.067-0.591s-0.119-0.317-0.222-0.436c-0.103-0.119-0.235-0.211-0.396-0.274s-0.358-0.095-0.591-0.095
		c-0.265,0-0.502,0.052-0.714,0.154c-0.212,0.104-0.401,0.242-0.567,0.417c-0.167,0.174-0.311,0.376-0.432,0.606
		s-0.222,0.472-0.301,0.726c-0.08,0.254-0.138,0.512-0.175,0.773s-0.056,0.512-0.056,0.75c0,0.222,0.022,0.42,0.067,0.595
		s0.119,0.321,0.222,0.44c0.104,0.119,0.235,0.21,0.397,0.273c0.161,0.063,0.358,0.095,0.591,0.095c0.264,0,0.502-0.051,0.714-0.154
		s0.4-0.243,0.567-0.42c0.167-0.178,0.311-0.381,0.433-0.611c0.122-0.229,0.222-0.473,0.301-0.729
		c0.08-0.257,0.138-0.515,0.174-0.773C189.553,255.907,189.572,255.658,189.572,255.419z M189.611,251.382
		c-0.042,0.053-0.084,0.097-0.127,0.131c-0.042,0.034-0.098,0.063-0.167,0.083c-0.069,0.021-0.153,0.037-0.253,0.048
		c-0.101,0.011-0.228,0.016-0.381,0.016c-0.185,0-0.331-0.008-0.437-0.023s-0.18-0.041-0.222-0.075
		c-0.042-0.034-0.057-0.078-0.043-0.131s0.043-0.114,0.091-0.183l1.206-1.816c0.042-0.059,0.09-0.108,0.143-0.15
		c0.053-0.043,0.12-0.076,0.202-0.1s0.184-0.041,0.305-0.052s0.27-0.016,0.444-0.016c0.243,0,0.434,0.012,0.571,0.036
		c0.137,0.023,0.236,0.055,0.297,0.095c0.061,0.04,0.086,0.085,0.075,0.135c-0.011,0.051-0.04,0.104-0.087,0.163L189.611,251.382z"
		/>
</g>
<g enable-background="new    ">
	<path d="M198.678,249.685c0,0.031-0.004,0.083-0.012,0.154s-0.02,0.152-0.032,0.242s-0.03,0.183-0.052,0.277
		c-0.021,0.096-0.046,0.184-0.074,0.266c-0.029,0.082-0.063,0.148-0.1,0.198c-0.037,0.051-0.077,0.076-0.119,0.076
		c-0.031,0-0.072-0.009-0.123-0.024s-0.107-0.033-0.17-0.052c-0.064-0.019-0.137-0.035-0.219-0.051
		c-0.082-0.017-0.17-0.024-0.266-0.024c-0.17,0-0.316,0.024-0.44,0.071c-0.124,0.048-0.231,0.123-0.321,0.227
		c-0.09,0.103-0.166,0.236-0.23,0.4c-0.063,0.164-0.115,0.359-0.158,0.587l-0.119,0.603h1.285c0.08,0,0.135,0.025,0.166,0.076
		c0.032,0.05,0.049,0.131,0.049,0.241c0,0.053-0.004,0.122-0.012,0.206c-0.009,0.085-0.023,0.177-0.045,0.274
		c-0.021,0.098-0.047,0.194-0.078,0.289c-0.032,0.096-0.066,0.183-0.104,0.262s-0.081,0.145-0.131,0.194
		c-0.051,0.051-0.104,0.075-0.162,0.075h-1.302l-1.245,6.219c-0.09,0.439-0.213,0.825-0.369,1.158s-0.353,0.612-0.591,0.837
		c-0.238,0.225-0.52,0.395-0.845,0.508s-0.694,0.171-1.106,0.171c-0.275,0-0.505-0.021-0.69-0.063
		c-0.185-0.043-0.304-0.085-0.357-0.127c-0.026-0.032-0.045-0.066-0.056-0.104s-0.016-0.09-0.016-0.158
		c0-0.032,0.004-0.085,0.012-0.159s0.02-0.154,0.036-0.241c0.016-0.088,0.036-0.179,0.06-0.274c0.023-0.095,0.05-0.182,0.079-0.262
		c0.029-0.079,0.063-0.144,0.099-0.194c0.037-0.05,0.08-0.075,0.127-0.075c0.032,0,0.063,0.003,0.095,0.008
		c0.032,0.006,0.066,0.012,0.103,0.021c0.037,0.008,0.081,0.014,0.131,0.02c0.05,0.005,0.115,0.008,0.194,0.008
		c0.169,0,0.316-0.025,0.44-0.075c0.124-0.051,0.231-0.129,0.321-0.234s0.167-0.242,0.23-0.408c0.063-0.167,0.119-0.369,0.167-0.606
		l1.198-5.966h-0.888c-0.063,0-0.113-0.022-0.147-0.067s-0.051-0.131-0.051-0.258c0-0.053,0.004-0.121,0.012-0.206
		c0.008-0.084,0.021-0.175,0.04-0.27s0.041-0.191,0.067-0.289c0.026-0.099,0.061-0.186,0.103-0.262
		c0.042-0.077,0.089-0.141,0.139-0.19c0.05-0.051,0.109-0.076,0.178-0.076h0.873l0.15-0.785c0.084-0.444,0.209-0.835,0.373-1.174
		c0.164-0.338,0.365-0.621,0.606-0.849s0.523-0.397,0.849-0.512c0.325-0.113,0.694-0.171,1.106-0.171
		c0.138,0,0.274,0.007,0.413,0.021c0.137,0.013,0.262,0.031,0.373,0.056c0.11,0.023,0.208,0.051,0.293,0.083
		c0.084,0.031,0.143,0.063,0.174,0.095c0.032,0.027,0.055,0.063,0.068,0.111C198.671,249.558,198.678,249.617,198.678,249.685z"/>
</g>
<g enable-background="new    ">
	<path d="M204.725,254.46c0,0.38-0.086,0.723-0.258,1.026c-0.172,0.305-0.438,0.566-0.801,0.786
		c-0.361,0.219-0.822,0.387-1.38,0.503c-0.558,0.117-1.223,0.175-1.995,0.175h-0.729c-0.021,0.122-0.037,0.242-0.048,0.361
		c-0.01,0.118-0.016,0.229-0.016,0.329c0,0.428,0.111,0.751,0.333,0.968s0.579,0.325,1.071,0.325c0.349,0,0.662-0.025,0.939-0.075
		c0.277-0.051,0.521-0.106,0.73-0.167s0.381-0.116,0.52-0.167c0.137-0.05,0.237-0.075,0.301-0.075s0.108,0.019,0.135,0.056
		s0.04,0.096,0.04,0.175c0,0.09-0.009,0.192-0.024,0.31c-0.016,0.116-0.038,0.23-0.066,0.345c-0.029,0.113-0.066,0.221-0.111,0.321
		s-0.097,0.177-0.154,0.229c-0.064,0.063-0.181,0.127-0.35,0.19c-0.17,0.063-0.373,0.122-0.611,0.175
		c-0.237,0.053-0.504,0.097-0.801,0.131c-0.296,0.034-0.598,0.052-0.904,0.052c-0.508,0-0.951-0.053-1.328-0.159
		c-0.379-0.105-0.694-0.267-0.948-0.483s-0.444-0.493-0.571-0.829s-0.19-0.733-0.19-1.193c0-0.354,0.033-0.734,0.1-1.139
		c0.065-0.404,0.173-0.804,0.321-1.197c0.148-0.395,0.338-0.771,0.57-1.131c0.233-0.359,0.515-0.676,0.846-0.948
		c0.33-0.271,0.712-0.49,1.146-0.654c0.433-0.163,0.928-0.245,1.482-0.245c0.481,0,0.895,0.057,1.242,0.17
		c0.346,0.114,0.63,0.265,0.852,0.452c0.223,0.188,0.388,0.402,0.496,0.643C204.671,253.959,204.725,254.207,204.725,254.46z
		 M202.766,254.611c0-0.212-0.083-0.388-0.25-0.527c-0.166-0.141-0.408-0.21-0.725-0.21c-0.266,0-0.502,0.047-0.711,0.143
		c-0.209,0.095-0.393,0.224-0.551,0.385s-0.295,0.352-0.408,0.57c-0.114,0.22-0.205,0.454-0.273,0.702h0.666
		c0.423,0,0.777-0.027,1.063-0.083s0.516-0.131,0.689-0.226c0.176-0.096,0.303-0.208,0.381-0.338
		C202.727,254.898,202.766,254.759,202.766,254.611z"/>
	<path d="M211.205,252.794c0,0.037-0.005,0.103-0.016,0.198c-0.01,0.095-0.026,0.206-0.047,0.333
		c-0.021,0.127-0.048,0.258-0.08,0.393c-0.031,0.135-0.066,0.261-0.107,0.377c-0.039,0.116-0.084,0.212-0.135,0.285
		c-0.05,0.074-0.104,0.111-0.162,0.111c-0.047,0-0.096-0.009-0.143-0.027c-0.048-0.019-0.101-0.037-0.158-0.056
		c-0.059-0.019-0.122-0.037-0.191-0.056c-0.068-0.019-0.147-0.028-0.237-0.028c-0.181,0-0.372,0.069-0.575,0.207
		s-0.398,0.318-0.583,0.543s-0.351,0.486-0.495,0.785c-0.146,0.299-0.25,0.612-0.314,0.94l-0.635,3.181
		c-0.01,0.053-0.035,0.099-0.074,0.139c-0.04,0.04-0.102,0.072-0.184,0.1c-0.082,0.026-0.188,0.046-0.32,0.059
		c-0.133,0.014-0.294,0.021-0.484,0.021c-0.195,0-0.355-0.007-0.479-0.021c-0.124-0.013-0.222-0.032-0.294-0.059
		c-0.071-0.027-0.117-0.06-0.139-0.1s-0.026-0.086-0.016-0.139l1.412-7.084c0.01-0.053,0.034-0.099,0.071-0.139
		c0.036-0.039,0.091-0.071,0.163-0.095c0.07-0.024,0.163-0.042,0.277-0.056c0.113-0.013,0.25-0.02,0.408-0.02
		c0.164,0,0.297,0.007,0.4,0.02c0.104,0.014,0.184,0.031,0.242,0.056c0.059,0.023,0.096,0.056,0.115,0.095
		c0.018,0.04,0.021,0.086,0.012,0.139l-0.223,1.127c0.127-0.228,0.273-0.437,0.44-0.627s0.344-0.355,0.532-0.495
		c0.188-0.141,0.381-0.25,0.582-0.33c0.201-0.079,0.399-0.118,0.596-0.118c0.079,0,0.16,0.005,0.242,0.016
		c0.081,0.011,0.158,0.023,0.229,0.039c0.071,0.017,0.135,0.036,0.19,0.06c0.055,0.024,0.1,0.049,0.131,0.076
		C211.189,252.675,211.205,252.726,211.205,252.794z"/>
	<path d="M218.424,254.46c0,0.38-0.086,0.723-0.258,1.026c-0.172,0.305-0.439,0.566-0.801,0.786
		c-0.362,0.219-0.822,0.387-1.381,0.503c-0.558,0.117-1.223,0.175-1.994,0.175h-0.73c-0.021,0.122-0.037,0.242-0.047,0.361
		c-0.011,0.118-0.016,0.229-0.016,0.329c0,0.428,0.11,0.751,0.332,0.968c0.223,0.217,0.58,0.325,1.071,0.325
		c0.349,0,0.663-0.025,0.94-0.075c0.277-0.051,0.521-0.106,0.729-0.167s0.382-0.116,0.52-0.167c0.138-0.05,0.237-0.075,0.302-0.075
		c0.063,0,0.107,0.019,0.135,0.056c0.025,0.037,0.039,0.096,0.039,0.175c0,0.09-0.008,0.192-0.023,0.31
		c-0.016,0.116-0.039,0.23-0.067,0.345c-0.029,0.113-0.066,0.221-0.111,0.321s-0.097,0.177-0.154,0.229
		c-0.063,0.063-0.181,0.127-0.349,0.19c-0.17,0.063-0.373,0.122-0.611,0.175s-0.505,0.097-0.801,0.131
		c-0.297,0.034-0.598,0.052-0.904,0.052c-0.508,0-0.951-0.053-1.329-0.159c-0.378-0.105-0.694-0.267-0.948-0.483
		s-0.443-0.493-0.57-0.829s-0.191-0.733-0.191-1.193c0-0.354,0.033-0.734,0.1-1.139s0.174-0.804,0.321-1.197
		c0.148-0.395,0.339-0.771,0.571-1.131s0.514-0.676,0.845-0.948c0.331-0.271,0.712-0.49,1.146-0.654
		c0.433-0.163,0.928-0.245,1.483-0.245c0.48,0,0.895,0.057,1.241,0.17c0.347,0.114,0.63,0.265,0.853,0.452s0.387,0.402,0.496,0.643
		C218.369,253.959,218.424,254.207,218.424,254.46z M216.465,254.611c0-0.212-0.084-0.388-0.25-0.527
		c-0.166-0.141-0.408-0.21-0.726-0.21c-0.265,0-0.501,0.047-0.71,0.143c-0.209,0.095-0.393,0.224-0.551,0.385
		c-0.159,0.161-0.295,0.352-0.409,0.57c-0.114,0.22-0.205,0.454-0.273,0.702h0.666c0.423,0,0.777-0.027,1.063-0.083
		c0.285-0.056,0.516-0.131,0.689-0.226c0.175-0.096,0.302-0.208,0.381-0.338C216.426,254.898,216.465,254.759,216.465,254.611z"/>
	<path d="M224.865,253.214c0,0.063-0.01,0.158-0.027,0.282c-0.02,0.124-0.047,0.25-0.084,0.377c-0.037,0.126-0.08,0.236-0.131,0.329
		c-0.051,0.092-0.107,0.139-0.17,0.139c-0.069,0-0.15-0.025-0.242-0.075c-0.093-0.051-0.205-0.106-0.338-0.167
		c-0.132-0.061-0.286-0.115-0.463-0.163c-0.178-0.047-0.385-0.071-0.623-0.071c-0.186,0-0.351,0.024-0.496,0.071
		c-0.146,0.048-0.266,0.113-0.361,0.194c-0.095,0.083-0.168,0.179-0.218,0.29s-0.075,0.23-0.075,0.356
		c0,0.164,0.067,0.302,0.202,0.413c0.136,0.111,0.303,0.216,0.504,0.313c0.2,0.098,0.417,0.199,0.65,0.305
		c0.232,0.106,0.449,0.238,0.65,0.397c0.201,0.158,0.368,0.352,0.5,0.578c0.132,0.228,0.198,0.514,0.198,0.857
		c0,0.401-0.076,0.773-0.23,1.114c-0.153,0.341-0.377,0.636-0.67,0.885c-0.293,0.248-0.65,0.442-1.07,0.583
		c-0.421,0.14-0.896,0.21-1.424,0.21c-0.254,0-0.496-0.019-0.727-0.056s-0.436-0.082-0.619-0.135
		c-0.182-0.053-0.336-0.114-0.463-0.183s-0.223-0.132-0.286-0.19c-0.042-0.042-0.073-0.087-0.091-0.135
		c-0.02-0.048-0.028-0.108-0.028-0.183c0-0.048,0.005-0.108,0.013-0.183c0.008-0.073,0.021-0.155,0.039-0.245
		s0.039-0.18,0.063-0.271c0.024-0.09,0.052-0.171,0.083-0.245c0.032-0.074,0.066-0.134,0.104-0.179s0.076-0.067,0.119-0.067
		c0.074,0,0.156,0.031,0.246,0.095s0.205,0.134,0.349,0.211c0.143,0.076,0.318,0.147,0.527,0.214s0.47,0.099,0.781,0.099
		c0.217,0,0.405-0.024,0.567-0.075c0.161-0.05,0.295-0.12,0.4-0.21s0.184-0.193,0.234-0.31c0.05-0.116,0.075-0.24,0.075-0.373
		c0-0.185-0.065-0.335-0.194-0.452c-0.13-0.116-0.293-0.225-0.488-0.325c-0.195-0.1-0.408-0.203-0.639-0.309
		c-0.229-0.106-0.442-0.235-0.639-0.389c-0.195-0.153-0.357-0.344-0.487-0.571s-0.194-0.513-0.194-0.856
		c0-0.376,0.071-0.725,0.215-1.048c0.143-0.322,0.352-0.604,0.626-0.845c0.274-0.24,0.608-0.428,0.999-0.563
		c0.392-0.135,0.836-0.202,1.333-0.202c0.222,0,0.438,0.015,0.646,0.043c0.209,0.029,0.396,0.067,0.563,0.115
		c0.166,0.048,0.312,0.101,0.436,0.158c0.125,0.059,0.213,0.117,0.266,0.175C224.836,252.998,224.865,253.087,224.865,253.214z"/>
</g>
</svg>
