<?xml version="1.0" encoding="utf-8"?>
<!-- Generator: Adobe Illustrator 16.0.0, SVG Export Plug-In . SVG Version: 6.00 Build 0)  -->
<!DOCTYPE svg PUBLIC "-//W3C//DTD SVG 1.1//EN" "http://www.w3.org/Graphics/SVG/1.1/DTD/svg11.dtd">
<svg version="1.1" id="Capa_1" xmlns="http://www.w3.org/2000/svg" xmlns:xlink="http://www.w3.org/1999/xlink" x="0px" y="0px" viewBox="0 0 396 313" enable-background="new 0 0 396 313" xml:space="preserve">
<path fill="#FFFFFF" d="M196.509,172.851l0.024-66.261h17.415c7.395,0,12.545,0.341,15.457,1.019
	c2.912,0.679,5.426,1.818,7.535,3.417c2.385,1.811,4.217,4.118,5.5,6.925s1.924,5.899,1.924,9.278c0,5.13-1.26,9.301-3.779,12.515
	c-2.52,3.213-6.193,5.349-11.02,6.404l24.264,26.703h-20.412l-21.414-25.934l1.383,25.934H196.509z M212.003,137.91h3.35
	c3.893,0,6.736-0.664,8.531-1.991c1.795-1.328,2.693-3.41,2.693-6.246c0-3.319-0.838-5.681-2.512-7.083
	c-1.674-1.403-4.49-2.105-8.441-2.105h-3.621V137.91z"/>
<path fill="#FFFFFF" d="M247.954,106.976l21.406,65.875h21.15l-4.459-11.085h24.082l10.83,11.085h20.643l-70.846-65.875H247.954z
	 M271.526,124.432l24.082,23.572h-15.164L271.526,124.432z"/>
<rect x="102.78" y="131.561" fill="#FFFFFF" width="18.571" height="41.627"/>
<path fill="#FFFFFF" d="M135.067,173.188V106.59h18.479c7.618,0,12.941,0.243,15.967,0.728c3.025,0.485,5.629,1.319,7.811,2.502
	c2.488,1.365,4.385,3.192,5.69,5.482c1.307,2.29,1.959,4.936,1.959,7.938c0,3.791-0.976,6.801-2.926,9.029
	c-1.952,2.229-5.062,3.92-9.332,5.072c4.792,0.364,8.54,2.024,11.244,4.981c2.702,2.957,4.055,6.907,4.055,11.851
	c0,3.548-0.76,6.672-2.281,9.37c-1.52,2.7-3.694,4.792-6.52,6.278c-2.304,1.213-5.146,2.077-8.525,2.593
	c-3.38,0.516-8.909,0.773-16.589,0.773H135.067z M152.117,133.201h3.687c4.546,0,7.665-0.492,9.355-1.479
	c1.688-0.984,2.534-2.69,2.534-5.117c0-2.517-0.791-4.283-2.373-5.3c-1.583-1.016-4.662-1.523-9.24-1.523h-3.963V133.201z
	 M152.117,159.586h6.452c4.361,0,7.449-0.538,9.262-1.615c1.812-1.076,2.719-2.873,2.719-5.391c0-2.79-0.829-4.737-2.489-5.846
	c-1.658-1.106-4.731-1.66-9.216-1.66h-6.728V159.586z"/>
<path fill="#FFFFFF" d="M204.628,283.374c-2.768,2.142-6.559,3.32-10.673,3.32c-4.116,0-7.906-1.179-10.675-3.32l-75.659-58.524
	h-16.44l85.946,66.48c4.52,3.497,10.496,5.422,16.828,5.422c6.331,0,12.308-1.925,16.827-5.422l85.945-66.48h-16.439
	L204.628,283.374z"/>
<path fill="#FFFFFF" d="M17.324,159.014c0,5.533,2.784,10.859,7.638,14.614l13.852,10.715v-12.716l-7.698-5.954
	c-2.408-1.863-3.734-4.228-3.734-6.659c0-2.431,1.326-4.795,3.734-6.658l7.698-5.954v-12.716L24.962,144.4
	C20.108,148.155,17.324,153.481,17.324,159.014"/>
<path fill="#FFFFFF" d="M100.133,95.269H88.48l-4.537,3.509v12.716l99.337-76.839c2.77-2.142,6.56-3.32,10.674-3.32
	c4.115,0,7.906,1.179,10.674,3.32l152.164,117.701c2.408,1.863,3.736,4.228,3.736,6.658c0,2.432-1.328,4.796-3.736,6.659
	l-18.162,14.048h16.439l7.877-6.093c4.854-3.755,7.639-9.081,7.639-14.614c0-5.532-2.785-10.858-7.639-14.613L210.782,26.698
	c-4.521-3.497-10.498-5.423-16.828-5.423s-12.306,1.926-16.828,5.423l-69.645,53.871l0.274,0.354
	c2.058,2.653,2.428,6.158,0.965,9.145C107.149,93.275,103.859,95.269,100.133,95.269"/>
<path fill="#FFFFFF" d="M364.659,184.609h-15.908h-16.439H114.217H97.866h-2.447c-8.789-0.603-15.805-7.646-16.364-16.446v-2.27
	v-16.54v-34.078v-12.717V90.38h15.744h5.334c3.701,0,5.875-3.734,3.76-6.461l-0.278-0.358l-5.966-7.691l-12.853-16.57L64.447,33.065
	c-1.823-2.35-5.697-2.35-7.521,0L36.578,59.299L17.48,83.919c-2.114,2.727,0.06,6.461,3.761,6.461h22.462v27.218v12.306v12.718
	v32.787v9.201c0,1.236,0.065,2.458,0.189,3.662c0.688,6.659,3.234,12.765,7.104,17.8c3.696,4.81,8.6,8.643,14.264,11.034
	c4.212,1.777,8.841,2.761,13.7,2.761c0.031,0,0.063-0.001,0.095-0.001v0.096h5.806h16.44h185.308h16.439h15.908h25.875
	l34.512-35.352H364.659z M58.897,116.281v-10.437V86.601c0-0.901,0.731-1.632,1.632-1.632c0.901,0,1.632,0.73,1.632,1.632v16.72
	v12.306v0.655c0,0.901-0.731,1.632-1.632,1.632c-0.347,0-0.651-0.132-0.915-0.316C59.191,117.302,58.897,116.836,58.897,116.281
	 M62.161,145.961v29.681c0,0.901-0.731,1.632-1.632,1.632c-0.901,0-1.632-0.73-1.632-1.632v-29.681c0-0.901,0.731-1.633,1.632-1.633
	C61.43,144.328,62.161,145.06,62.161,145.961 M100.303,204.767h-6.054v-0.096l-12.714,0.001h-2.651
	c-3.027-0.015-5.91-0.679-8.599-1.974c-0.813-0.391-1.154-1.367-0.763-2.179c0.39-0.813,1.368-1.156,2.179-0.763
	c1.739,0.837,3.579,1.351,5.484,1.551c0.558,0.059,1.12,0.098,1.689,0.101l0.18-0.002h18.459v0.097h2.79
	c0.901,0,1.632,0.73,1.632,1.632S101.204,204.767,100.303,204.767 M159.663,204.767h-29.68c-0.901,0-1.632-0.73-1.632-1.632
	s0.731-1.632,1.632-1.632h29.68c0.901,0,1.632,0.73,1.632,1.632S160.564,204.767,159.663,204.767 M219.022,204.767h-29.68
	c-0.9,0-1.632-0.73-1.632-1.632s0.731-1.632,1.632-1.632h29.68c0.9,0,1.633,0.73,1.633,1.632S219.923,204.767,219.022,204.767
	 M278.382,204.767h-29.678c-0.902,0-1.633-0.73-1.633-1.632s0.73-1.632,1.633-1.632h29.678c0.902,0,1.635,0.73,1.635,1.632
	S279.284,204.767,278.382,204.767 M308.063,204.767c-0.459,0-0.871-0.192-1.168-0.498c-0.285-0.294-0.463-0.692-0.463-1.134
	c0-0.901,0.73-1.632,1.631-1.632h2.408h16.439h10.832c0.902,0,1.633,0.73,1.633,1.632s-0.73,1.632-1.633,1.632H322.69H308.063z"/>
<path fill="#FFFFFF" d="M121.351,116.835c0-5.128-4.157-9.285-9.286-9.285c-5.128,0-9.285,4.157-9.285,9.285
	c0,5.129,4.157,9.286,9.285,9.286C117.193,126.121,121.351,121.964,121.351,116.835"/>
<path fill="#FFFFFF" d="M159.62,245.304c0.026,0.19,0.038,0.342,0.035,0.452c-0.003,0.111-0.04,0.195-0.111,0.25
	c-0.072,0.056-0.189,0.09-0.353,0.104s-0.389,0.021-0.674,0.021c-0.201,0-0.365-0.005-0.492-0.013s-0.225-0.022-0.294-0.044
	c-0.068-0.021-0.116-0.052-0.142-0.095s-0.042-0.101-0.048-0.175l-0.277-2.063h-3.856l-1.062,2.015
	c-0.037,0.074-0.079,0.137-0.127,0.188c-0.048,0.05-0.116,0.088-0.206,0.114c-0.091,0.026-0.211,0.045-0.361,0.056
	c-0.151,0.01-0.34,0.017-0.567,0.017c-0.244,0-0.433-0.009-0.568-0.025c-0.135-0.015-0.224-0.054-0.269-0.114
	s-0.051-0.146-0.017-0.258c0.035-0.111,0.103-0.259,0.203-0.444l4.982-9.105c0.052-0.091,0.105-0.163,0.158-0.218
	c0.053-0.057,0.128-0.099,0.226-0.127c0.098-0.029,0.23-0.049,0.397-0.057c0.166-0.008,0.385-0.011,0.654-0.011
	c0.312,0,0.559,0.003,0.742,0.011c0.182,0.008,0.324,0.027,0.424,0.057c0.101,0.028,0.167,0.072,0.199,0.131
	c0.031,0.058,0.052,0.137,0.063,0.237L159.62,245.304z M156.502,237.776h-0.008l-2.292,4.363h2.887L156.502,237.776z"/>
<path fill="#FFFFFF" d="M167.337,239.204c0,0.122-0.014,0.26-0.043,0.413c-0.029,0.152-0.068,0.299-0.115,0.436
	c-0.048,0.138-0.108,0.253-0.179,0.346c-0.071,0.093-0.149,0.139-0.234,0.139c-0.079,0-0.156-0.032-0.23-0.096
	c-0.074-0.063-0.165-0.135-0.274-0.214c-0.108-0.079-0.244-0.152-0.407-0.218c-0.165-0.066-0.376-0.1-0.635-0.1
	c-0.276,0-0.521,0.061-0.738,0.183c-0.217,0.121-0.406,0.279-0.567,0.472c-0.162,0.193-0.295,0.412-0.401,0.658
	s-0.193,0.495-0.262,0.746c-0.068,0.251-0.117,0.492-0.146,0.722c-0.03,0.229-0.044,0.43-0.044,0.599
	c0,0.429,0.094,0.754,0.282,0.977c0.187,0.222,0.482,0.332,0.884,0.332c0.296,0,0.55-0.038,0.761-0.114
	c0.212-0.076,0.393-0.161,0.544-0.254c0.151-0.093,0.28-0.176,0.388-0.25c0.109-0.074,0.208-0.111,0.298-0.111
	c0.053,0,0.091,0.024,0.115,0.071c0.024,0.048,0.036,0.117,0.036,0.206c0,0.091-0.011,0.203-0.032,0.338
	c-0.022,0.135-0.049,0.271-0.084,0.407c-0.034,0.139-0.073,0.267-0.118,0.386c-0.046,0.119-0.103,0.213-0.175,0.282
	c-0.071,0.068-0.184,0.146-0.337,0.233c-0.153,0.087-0.33,0.165-0.532,0.234c-0.201,0.068-0.418,0.124-0.653,0.166
	c-0.236,0.043-0.48,0.063-0.734,0.063c-0.905,0-1.582-0.229-2.031-0.687c-0.45-0.457-0.674-1.133-0.674-2.026
	c0-0.322,0.03-0.677,0.091-1.063c0.06-0.386,0.16-0.773,0.297-1.162c0.138-0.389,0.317-0.766,0.535-1.131
	c0.22-0.364,0.489-0.687,0.806-0.967c0.317-0.281,0.684-0.506,1.102-0.675c0.418-0.169,0.9-0.254,1.444-0.254
	c0.211,0,0.418,0.017,0.619,0.048c0.201,0.032,0.385,0.075,0.555,0.131c0.169,0.056,0.319,0.12,0.448,0.194s0.226,0.142,0.29,0.202
	c0.063,0.062,0.104,0.115,0.123,0.163C167.328,239.077,167.337,239.136,167.337,239.204"/>
<path fill="#FFFFFF" d="M173.977,245.82c-0.022,0.11-0.105,0.19-0.251,0.237c-0.145,0.047-0.379,0.071-0.701,0.071
	c-0.164,0-0.298-0.006-0.401-0.016c-0.103-0.011-0.186-0.027-0.25-0.052c-0.064-0.023-0.104-0.056-0.123-0.095
	c-0.018-0.04-0.022-0.089-0.011-0.146l0.221-1.135c-0.079,0.169-0.206,0.348-0.38,0.535c-0.175,0.188-0.381,0.358-0.619,0.512
	c-0.238,0.153-0.501,0.28-0.789,0.381c-0.288,0.101-0.586,0.151-0.892,0.151c-0.423,0-0.775-0.075-1.055-0.224
	c-0.281-0.147-0.505-0.347-0.675-0.598c-0.169-0.252-0.289-0.538-0.361-0.861c-0.071-0.322-0.107-0.661-0.107-1.015
	c0-0.334,0.032-0.696,0.096-1.091c0.063-0.395,0.161-0.787,0.293-1.179c0.132-0.391,0.302-0.768,0.508-1.13
	c0.206-0.361,0.453-0.683,0.741-0.964c0.289-0.28,0.619-0.503,0.992-0.67c0.372-0.167,0.795-0.25,1.265-0.25
	c0.439,0,0.828,0.091,1.166,0.273s0.635,0.448,0.889,0.797l0.126-0.626c0.021-0.111,0.105-0.19,0.25-0.238s0.38-0.071,0.703-0.071
	c0.158,0,0.29,0.007,0.396,0.021c0.106,0.013,0.189,0.031,0.25,0.056c0.06,0.023,0.101,0.055,0.123,0.095
	c0.021,0.039,0.026,0.086,0.015,0.139L173.977,245.82z M172.993,240.854c-0.185-0.29-0.39-0.509-0.615-0.653
	c-0.224-0.146-0.485-0.219-0.781-0.219c-0.222,0-0.426,0.053-0.611,0.159c-0.185,0.105-0.349,0.247-0.492,0.424
	s-0.269,0.383-0.376,0.615c-0.108,0.232-0.199,0.475-0.27,0.726c-0.072,0.251-0.124,0.505-0.159,0.761
	c-0.034,0.257-0.051,0.494-0.051,0.711c0,0.158,0.012,0.309,0.035,0.452c0.025,0.143,0.068,0.27,0.131,0.381
	c0.064,0.11,0.148,0.199,0.254,0.265c0.106,0.066,0.241,0.1,0.404,0.1c0.234,0,0.471-0.07,0.715-0.21
	c0.243-0.141,0.47-0.331,0.681-0.571c0.212-0.24,0.399-0.521,0.56-0.841c0.161-0.319,0.279-0.662,0.353-1.027L172.993,240.854z"/>
<path fill="#FFFFFF" d="M182.56,245.82c-0.021,0.11-0.105,0.19-0.25,0.237s-0.379,0.071-0.702,0.071
	c-0.165,0-0.298-0.006-0.401-0.016c-0.103-0.011-0.186-0.027-0.249-0.052c-0.064-0.023-0.105-0.056-0.123-0.095
	c-0.019-0.04-0.023-0.089-0.013-0.146l0.214-1.135c-0.078,0.169-0.206,0.348-0.38,0.535c-0.175,0.188-0.381,0.359-0.619,0.516
	c-0.238,0.156-0.5,0.283-0.789,0.381c-0.288,0.098-0.586,0.147-0.892,0.147c-0.302,0-0.564-0.039-0.789-0.115
	c-0.226-0.077-0.418-0.182-0.58-0.313c-0.161-0.133-0.294-0.288-0.4-0.468c-0.106-0.181-0.19-0.371-0.254-0.572
	c-0.063-0.2-0.108-0.407-0.135-0.622c-0.026-0.214-0.039-0.425-0.039-0.631c0-0.343,0.031-0.712,0.095-1.106
	c0.063-0.394,0.163-0.785,0.297-1.174c0.135-0.389,0.306-0.763,0.512-1.122c0.206-0.36,0.453-0.677,0.741-0.952
	c0.289-0.275,0.619-0.494,0.992-0.658s0.792-0.246,1.257-0.246c0.206,0,0.403,0.022,0.591,0.067s0.36,0.106,0.515,0.183
	c0.157,0.076,0.298,0.168,0.425,0.273s0.235,0.218,0.325,0.333l0.755-3.736c0.01-0.052,0.033-0.1,0.07-0.143
	c0.037-0.042,0.098-0.077,0.18-0.106c0.081-0.029,0.188-0.052,0.316-0.067c0.13-0.016,0.292-0.024,0.488-0.024
	c0.195,0,0.354,0.009,0.479,0.024c0.125,0.016,0.223,0.038,0.29,0.067c0.069,0.029,0.114,0.064,0.136,0.106
	c0.02,0.043,0.025,0.091,0.016,0.143L182.56,245.82z M181.567,240.862c-0.185-0.291-0.39-0.51-0.615-0.659
	c-0.224-0.147-0.485-0.222-0.781-0.222c-0.217,0-0.416,0.052-0.599,0.154c-0.182,0.104-0.346,0.241-0.491,0.413
	c-0.146,0.172-0.273,0.373-0.382,0.603c-0.108,0.23-0.198,0.473-0.269,0.727c-0.071,0.253-0.126,0.507-0.163,0.761
	c-0.036,0.254-0.055,0.495-0.055,0.723c0,0.401,0.066,0.704,0.198,0.907c0.133,0.204,0.342,0.306,0.627,0.306
	c0.233,0,0.471-0.07,0.714-0.21c0.243-0.141,0.47-0.328,0.682-0.563c0.212-0.235,0.398-0.513,0.559-0.833
	c0.161-0.319,0.279-0.662,0.353-1.027L181.567,240.862z"/>
<path fill="#FFFFFF" d="M191.927,240.291c0,0.381-0.086,0.723-0.258,1.027c-0.172,0.304-0.439,0.565-0.801,0.785
	s-0.822,0.388-1.38,0.503c-0.558,0.117-1.224,0.176-1.995,0.176h-0.73c-0.021,0.121-0.037,0.241-0.047,0.36
	c-0.011,0.119-0.017,0.229-0.017,0.329c0,0.429,0.11,0.751,0.334,0.968c0.222,0.217,0.579,0.325,1.069,0.325
	c0.35,0,0.664-0.025,0.941-0.075s0.52-0.105,0.729-0.167c0.209-0.06,0.382-0.115,0.521-0.166c0.137-0.051,0.237-0.075,0.301-0.075
	c0.063,0,0.108,0.019,0.135,0.055c0.027,0.037,0.039,0.096,0.039,0.176c0,0.089-0.008,0.192-0.023,0.309s-0.039,0.231-0.068,0.345
	c-0.028,0.114-0.065,0.222-0.109,0.321c-0.045,0.102-0.098,0.177-0.155,0.23c-0.063,0.063-0.18,0.127-0.349,0.19
	c-0.17,0.063-0.373,0.122-0.611,0.174c-0.236,0.053-0.505,0.097-0.801,0.132c-0.297,0.033-0.598,0.052-0.905,0.052
	c-0.507,0-0.95-0.054-1.327-0.16c-0.379-0.104-0.695-0.266-0.949-0.483c-0.252-0.217-0.443-0.492-0.57-0.828
	c-0.127-0.337-0.191-0.733-0.191-1.194c0-0.354,0.034-0.733,0.1-1.138c0.066-0.405,0.174-0.805,0.322-1.198
	c0.147-0.394,0.338-0.771,0.57-1.13c0.232-0.36,0.516-0.676,0.846-0.948s0.713-0.49,1.146-0.654
	c0.435-0.164,0.928-0.246,1.483-0.246c0.481,0,0.896,0.057,1.242,0.171c0.346,0.113,0.629,0.265,0.852,0.452
	c0.222,0.188,0.388,0.401,0.496,0.643C191.872,239.79,191.927,240.037,191.927,240.291 M189.968,240.441
	c0-0.211-0.084-0.387-0.25-0.527c-0.166-0.14-0.408-0.21-0.726-0.21c-0.265,0-0.501,0.047-0.71,0.143s-0.393,0.224-0.551,0.385
	c-0.159,0.161-0.295,0.352-0.409,0.571s-0.205,0.453-0.272,0.701h0.666c0.422,0,0.776-0.027,1.063-0.084
	c0.285-0.054,0.516-0.13,0.689-0.225c0.174-0.096,0.303-0.208,0.381-0.337C189.929,240.729,189.968,240.59,189.968,240.441"/>
<path fill="#FFFFFF" d="M203.634,245.813c-0.012,0.052-0.035,0.099-0.076,0.139c-0.039,0.039-0.1,0.072-0.186,0.099
	c-0.084,0.026-0.191,0.046-0.32,0.06s-0.293,0.02-0.488,0.02c-0.191,0-0.35-0.006-0.475-0.02c-0.127-0.014-0.227-0.033-0.295-0.06
	s-0.115-0.06-0.139-0.099c-0.023-0.04-0.027-0.087-0.012-0.139l0.848-4.244c0.021-0.121,0.039-0.242,0.057-0.361
	c0.016-0.118,0.023-0.239,0.023-0.361c0-0.248-0.047-0.449-0.139-0.603s-0.258-0.229-0.496-0.229c-0.211,0-0.43,0.068-0.658,0.206
	c-0.227,0.138-0.445,0.323-0.654,0.559s-0.395,0.511-0.555,0.825c-0.162,0.315-0.277,0.649-0.346,1.003l-0.643,3.206
	c-0.012,0.052-0.035,0.099-0.074,0.139c-0.039,0.039-0.104,0.072-0.188,0.099s-0.191,0.046-0.322,0.06
	c-0.129,0.014-0.291,0.02-0.486,0.02c-0.19,0-0.348-0.006-0.473-0.02c-0.124-0.014-0.221-0.033-0.289-0.06s-0.115-0.06-0.139-0.099
	c-0.023-0.04-0.031-0.087-0.02-0.139l0.84-4.244c0.033-0.121,0.056-0.247,0.067-0.377c0.015-0.13,0.021-0.255,0.021-0.377
	c0-0.232-0.049-0.424-0.143-0.574c-0.096-0.151-0.26-0.227-0.492-0.227c-0.211,0-0.431,0.068-0.658,0.206s-0.445,0.323-0.654,0.559
	s-0.395,0.511-0.557,0.825c-0.16,0.315-0.275,0.649-0.344,1.003l-0.643,3.206c-0.012,0.052-0.036,0.099-0.075,0.139
	c-0.04,0.039-0.101,0.072-0.183,0.099s-0.189,0.046-0.321,0.06s-0.293,0.02-0.483,0.02c-0.195,0-0.355-0.006-0.479-0.02
	c-0.125-0.014-0.224-0.033-0.294-0.06c-0.071-0.026-0.118-0.06-0.139-0.099c-0.021-0.04-0.027-0.087-0.017-0.139l1.421-7.084
	c0.01-0.053,0.032-0.1,0.067-0.139c0.034-0.04,0.087-0.071,0.157-0.095c0.072-0.024,0.164-0.043,0.279-0.056
	c0.112-0.014,0.25-0.021,0.407-0.021c0.164,0,0.298,0.007,0.401,0.021c0.103,0.013,0.183,0.031,0.242,0.056
	c0.058,0.023,0.097,0.055,0.115,0.095c0.018,0.039,0.021,0.086,0.01,0.139l-0.229,1.166c0.111-0.185,0.258-0.374,0.443-0.567
	c0.186-0.192,0.396-0.366,0.632-0.52c0.235-0.153,0.491-0.279,0.769-0.377c0.277-0.097,0.564-0.146,0.86-0.146
	c0.308,0,0.573,0.041,0.796,0.123c0.227,0.082,0.412,0.195,0.557,0.341s0.256,0.316,0.334,0.512
	c0.076,0.196,0.125,0.406,0.146,0.635c0.121-0.19,0.275-0.381,0.463-0.571s0.4-0.362,0.635-0.516
	c0.236-0.153,0.49-0.279,0.766-0.377c0.275-0.097,0.559-0.146,0.848-0.146c0.371,0,0.684,0.052,0.934,0.155
	c0.252,0.102,0.453,0.245,0.605,0.428c0.154,0.183,0.266,0.396,0.334,0.643s0.104,0.512,0.104,0.797c0,0.186-0.012,0.372-0.031,0.56
	c-0.021,0.188-0.053,0.38-0.096,0.575L203.634,245.813z"/>
<path fill="#FFFFFF" d="M207.585,245.813c-0.012,0.052-0.035,0.099-0.076,0.139c-0.039,0.039-0.1,0.072-0.182,0.099
	s-0.189,0.046-0.32,0.06c-0.133,0.014-0.293,0.019-0.484,0.019c-0.197,0-0.355-0.005-0.48-0.019
	c-0.123-0.014-0.223-0.033-0.293-0.06c-0.072-0.026-0.117-0.06-0.139-0.099c-0.021-0.04-0.027-0.087-0.018-0.139l1.406-7.061
	c0.01-0.053,0.035-0.099,0.074-0.139s0.102-0.074,0.184-0.103c0.08-0.029,0.186-0.053,0.314-0.068
	c0.131-0.016,0.293-0.023,0.49-0.023c0.195,0,0.355,0.008,0.48,0.023c0.123,0.016,0.221,0.039,0.293,0.068
	c0.07,0.028,0.117,0.063,0.139,0.103c0.02,0.04,0.025,0.086,0.014,0.139L207.585,245.813z M209.632,236.356
	c-0.037,0.196-0.088,0.361-0.15,0.496c-0.064,0.135-0.148,0.243-0.254,0.325s-0.236,0.14-0.389,0.175
	c-0.154,0.034-0.346,0.051-0.572,0.051c-0.221,0-0.402-0.017-0.543-0.051c-0.141-0.035-0.246-0.093-0.318-0.175
	c-0.07-0.082-0.111-0.19-0.123-0.325c-0.01-0.135,0.006-0.3,0.049-0.496c0.037-0.189,0.088-0.352,0.15-0.483
	c0.064-0.132,0.148-0.241,0.254-0.325c0.105-0.085,0.236-0.146,0.389-0.183s0.344-0.056,0.57-0.056c0.225,0,0.404,0.019,0.545,0.056
	s0.246,0.098,0.316,0.183c0.072,0.084,0.111,0.193,0.119,0.325S209.669,236.167,209.632,236.356"/>
<path fill="#FFFFFF" d="M216.151,245.82c-0.021,0.11-0.105,0.19-0.25,0.237s-0.379,0.071-0.701,0.071
	c-0.164,0-0.299-0.006-0.402-0.016c-0.102-0.011-0.186-0.027-0.248-0.052c-0.064-0.023-0.105-0.056-0.123-0.095
	c-0.02-0.04-0.023-0.089-0.012-0.146l0.223-1.135c-0.08,0.169-0.207,0.348-0.383,0.535c-0.174,0.188-0.381,0.358-0.617,0.512
	c-0.238,0.153-0.5,0.28-0.789,0.381s-0.586,0.151-0.893,0.151c-0.424,0-0.775-0.075-1.055-0.224
	c-0.281-0.147-0.506-0.347-0.674-0.598c-0.17-0.252-0.291-0.538-0.363-0.861c-0.07-0.322-0.105-0.661-0.105-1.015
	c0-0.334,0.031-0.696,0.096-1.091c0.063-0.395,0.16-0.787,0.293-1.179c0.131-0.391,0.301-0.768,0.508-1.13
	c0.205-0.361,0.453-0.683,0.742-0.964c0.287-0.28,0.619-0.503,0.99-0.67c0.373-0.167,0.795-0.25,1.266-0.25
	c0.438,0,0.828,0.091,1.166,0.273s0.635,0.448,0.889,0.797l0.127-0.626c0.02-0.111,0.104-0.19,0.25-0.238
	c0.145-0.048,0.379-0.071,0.701-0.071c0.158,0,0.291,0.007,0.396,0.021c0.105,0.013,0.189,0.031,0.25,0.056
	c0.061,0.023,0.102,0.055,0.123,0.095c0.021,0.039,0.025,0.086,0.016,0.139L216.151,245.82z M215.167,240.854
	c-0.184-0.29-0.389-0.509-0.615-0.653c-0.223-0.146-0.484-0.219-0.779-0.219c-0.223,0-0.426,0.053-0.611,0.159
	c-0.186,0.105-0.348,0.247-0.492,0.424c-0.143,0.177-0.268,0.383-0.377,0.615c-0.107,0.232-0.197,0.475-0.27,0.726
	c-0.07,0.251-0.123,0.505-0.158,0.761c-0.035,0.257-0.051,0.494-0.051,0.711c0,0.158,0.012,0.309,0.035,0.452
	c0.023,0.143,0.066,0.27,0.131,0.381c0.063,0.11,0.146,0.199,0.254,0.265c0.105,0.066,0.24,0.1,0.404,0.1
	c0.232,0,0.471-0.07,0.715-0.21c0.242-0.141,0.471-0.331,0.682-0.571s0.398-0.521,0.559-0.841c0.16-0.319,0.279-0.662,0.354-1.027
	L215.167,240.854z"/>
<path fill="#FFFFFF" d="M228.405,245.82c-0.02,0.11-0.104,0.19-0.25,0.237c-0.145,0.047-0.379,0.071-0.699,0.071
	c-0.166,0-0.299-0.006-0.402-0.016c-0.102-0.011-0.186-0.027-0.25-0.052c-0.063-0.023-0.104-0.056-0.123-0.095
	c-0.018-0.04-0.021-0.089-0.012-0.146l0.215-1.135c-0.08,0.169-0.207,0.348-0.381,0.535s-0.381,0.359-0.619,0.516
	s-0.5,0.283-0.789,0.381c-0.287,0.098-0.586,0.147-0.891,0.147c-0.303,0-0.566-0.039-0.789-0.115
	c-0.227-0.077-0.418-0.182-0.58-0.313c-0.162-0.133-0.295-0.288-0.402-0.468c-0.104-0.181-0.188-0.371-0.252-0.572
	c-0.064-0.2-0.109-0.407-0.135-0.622c-0.027-0.214-0.041-0.425-0.041-0.631c0-0.343,0.033-0.712,0.096-1.106
	c0.064-0.394,0.162-0.785,0.297-1.174c0.137-0.389,0.307-0.763,0.514-1.122c0.205-0.36,0.451-0.677,0.74-0.952
	c0.287-0.275,0.619-0.494,0.992-0.658s0.791-0.246,1.256-0.246c0.207,0,0.404,0.022,0.592,0.067s0.359,0.106,0.516,0.183
	s0.297,0.168,0.424,0.273s0.234,0.218,0.326,0.333l0.752-3.736c0.012-0.052,0.035-0.1,0.072-0.143
	c0.037-0.042,0.096-0.077,0.18-0.106c0.08-0.029,0.186-0.052,0.316-0.067c0.129-0.016,0.293-0.024,0.486-0.024
	c0.197,0,0.357,0.009,0.48,0.024c0.125,0.016,0.221,0.038,0.291,0.067c0.066,0.029,0.111,0.064,0.135,0.106
	c0.02,0.043,0.025,0.091,0.016,0.143L228.405,245.82z M227.415,240.862c-0.186-0.291-0.391-0.51-0.615-0.659
	c-0.225-0.147-0.484-0.222-0.781-0.222c-0.217,0-0.416,0.052-0.598,0.154c-0.184,0.104-0.348,0.241-0.492,0.413
	s-0.273,0.373-0.381,0.603c-0.109,0.23-0.199,0.473-0.27,0.727c-0.072,0.253-0.127,0.507-0.164,0.761
	c-0.035,0.254-0.055,0.495-0.055,0.723c0,0.401,0.066,0.704,0.199,0.907c0.131,0.204,0.34,0.306,0.625,0.306
	c0.234,0,0.471-0.07,0.715-0.21c0.244-0.141,0.471-0.328,0.682-0.563c0.213-0.235,0.398-0.513,0.561-0.833
	c0.16-0.319,0.277-0.662,0.352-1.027L227.415,240.862z"/>
<path fill="#FFFFFF" d="M237.774,240.291c0,0.381-0.086,0.723-0.258,1.027c-0.172,0.304-0.439,0.565-0.801,0.785
	c-0.363,0.22-0.824,0.388-1.381,0.503c-0.559,0.117-1.223,0.176-1.994,0.176h-0.73c-0.021,0.121-0.037,0.241-0.047,0.36
	c-0.012,0.119-0.018,0.229-0.018,0.329c0,0.429,0.111,0.751,0.334,0.968s0.58,0.325,1.07,0.325c0.35,0,0.662-0.025,0.941-0.075
	c0.277-0.05,0.52-0.105,0.729-0.167c0.209-0.06,0.383-0.115,0.52-0.166s0.238-0.075,0.301-0.075c0.064,0,0.109,0.019,0.137,0.055
	c0.025,0.037,0.039,0.096,0.039,0.176c0,0.089-0.008,0.192-0.023,0.309s-0.039,0.231-0.068,0.345
	c-0.029,0.114-0.066,0.222-0.109,0.321c-0.045,0.102-0.098,0.177-0.156,0.23c-0.064,0.063-0.18,0.127-0.348,0.19
	c-0.17,0.063-0.373,0.122-0.611,0.174c-0.238,0.053-0.506,0.097-0.801,0.132c-0.297,0.033-0.6,0.052-0.906,0.052
	c-0.506,0-0.949-0.054-1.328-0.16c-0.377-0.104-0.693-0.266-0.947-0.483c-0.254-0.217-0.443-0.492-0.57-0.828
	c-0.127-0.337-0.191-0.733-0.191-1.194c0-0.354,0.033-0.733,0.1-1.138c0.066-0.405,0.174-0.805,0.32-1.198
	c0.148-0.394,0.34-0.771,0.572-1.13c0.23-0.36,0.514-0.676,0.844-0.948s0.713-0.49,1.146-0.654s0.928-0.246,1.484-0.246
	c0.48,0,0.895,0.057,1.24,0.171c0.346,0.113,0.631,0.265,0.854,0.452c0.221,0.188,0.387,0.401,0.494,0.643
	C237.72,239.79,237.774,240.037,237.774,240.291 M235.815,240.441c0-0.211-0.084-0.387-0.25-0.527c-0.168-0.14-0.41-0.21-0.727-0.21
	c-0.264,0-0.5,0.047-0.709,0.143s-0.395,0.224-0.551,0.385c-0.16,0.161-0.295,0.352-0.41,0.571c-0.113,0.22-0.205,0.453-0.273,0.701
	h0.666c0.424,0,0.777-0.027,1.064-0.084c0.285-0.054,0.514-0.13,0.689-0.225c0.174-0.096,0.303-0.208,0.379-0.337
	C235.774,240.729,235.815,240.59,235.815,240.441"/>
<path fill="#FFFFFF" d="M174.596,254.341c0,0.122-0.014,0.26-0.043,0.413c-0.03,0.152-0.068,0.299-0.116,0.436
	c-0.048,0.138-0.107,0.253-0.178,0.346c-0.071,0.092-0.149,0.139-0.234,0.139c-0.079,0-0.157-0.032-0.23-0.096
	c-0.074-0.063-0.165-0.135-0.274-0.214c-0.108-0.079-0.244-0.152-0.408-0.218c-0.164-0.066-0.376-0.1-0.635-0.1
	c-0.275,0-0.521,0.061-0.737,0.183c-0.217,0.121-0.407,0.279-0.568,0.472c-0.161,0.193-0.295,0.412-0.4,0.658
	c-0.106,0.246-0.194,0.495-0.262,0.746c-0.069,0.251-0.118,0.491-0.147,0.722c-0.029,0.229-0.043,0.43-0.043,0.599
	c0,0.429,0.094,0.754,0.281,0.977c0.188,0.222,0.483,0.332,0.885,0.332c0.296,0,0.55-0.038,0.761-0.114
	c0.212-0.077,0.393-0.161,0.544-0.255c0.15-0.092,0.28-0.175,0.388-0.249s0.208-0.111,0.298-0.111c0.052,0,0.091,0.022,0.115,0.071
	c0.024,0.048,0.035,0.117,0.035,0.206c0,0.091-0.011,0.203-0.032,0.338s-0.049,0.271-0.083,0.407
	c-0.034,0.139-0.074,0.267-0.119,0.386s-0.103,0.213-0.174,0.281c-0.071,0.069-0.184,0.147-0.337,0.234
	c-0.154,0.087-0.331,0.165-0.532,0.234c-0.201,0.067-0.419,0.124-0.654,0.166c-0.235,0.043-0.48,0.063-0.733,0.063
	c-0.906,0-1.582-0.229-2.032-0.687c-0.449-0.457-0.674-1.133-0.674-2.026c0-0.322,0.03-0.677,0.092-1.063
	c0.06-0.386,0.16-0.773,0.297-1.162c0.137-0.389,0.316-0.766,0.535-1.131c0.22-0.364,0.488-0.688,0.806-0.967
	c0.316-0.281,0.684-0.506,1.102-0.675s0.899-0.254,1.443-0.254c0.212,0,0.418,0.016,0.619,0.048
	c0.201,0.032,0.386,0.075,0.555,0.131s0.32,0.12,0.449,0.194s0.226,0.142,0.289,0.202c0.064,0.062,0.105,0.115,0.123,0.163
	C174.586,254.214,174.596,254.272,174.596,254.341"/>
<path fill="#FFFFFF" d="M181.402,260.948c-0.011,0.053-0.036,0.1-0.075,0.139c-0.04,0.04-0.101,0.073-0.183,0.1
	s-0.188,0.046-0.317,0.06c-0.13,0.014-0.295,0.02-0.496,0.02c-0.191,0-0.348-0.006-0.472-0.02s-0.221-0.033-0.29-0.06
	c-0.068-0.026-0.115-0.06-0.138-0.1c-0.024-0.039-0.031-0.086-0.02-0.139l0.849-4.243c0.02-0.111,0.039-0.236,0.055-0.377
	c0.016-0.14,0.024-0.266,0.024-0.377c0-0.116-0.012-0.224-0.036-0.321s-0.062-0.183-0.115-0.254
	c-0.053-0.071-0.121-0.127-0.206-0.167c-0.085-0.039-0.185-0.059-0.302-0.059c-0.216,0-0.443,0.068-0.678,0.206
	s-0.457,0.325-0.666,0.563c-0.209,0.237-0.395,0.515-0.559,0.833c-0.165,0.316-0.28,0.652-0.349,1.007l-0.643,3.188
	c-0.01,0.053-0.035,0.1-0.075,0.139c-0.04,0.04-0.1,0.073-0.182,0.1c-0.083,0.026-0.19,0.046-0.321,0.06
	c-0.133,0.014-0.294,0.02-0.485,0.02c-0.195,0-0.355-0.006-0.48-0.02c-0.124-0.014-0.222-0.033-0.293-0.06
	c-0.071-0.026-0.118-0.06-0.139-0.1c-0.021-0.039-0.027-0.086-0.016-0.139l2.087-10.431c0.01-0.053,0.034-0.1,0.071-0.143
	c0.036-0.043,0.097-0.078,0.182-0.107c0.085-0.028,0.192-0.051,0.321-0.067c0.13-0.016,0.293-0.023,0.488-0.023
	c0.196,0,0.356,0.008,0.48,0.023c0.124,0.017,0.221,0.039,0.29,0.067c0.068,0.029,0.114,0.064,0.134,0.107
	c0.022,0.043,0.027,0.09,0.016,0.143l-0.563,2.871c-0.026,0.117-0.056,0.241-0.087,0.372c-0.032,0.134-0.067,0.265-0.107,0.394
	c-0.04,0.13-0.079,0.256-0.119,0.377s-0.078,0.229-0.115,0.325c0.1-0.169,0.238-0.338,0.412-0.508
	c0.175-0.169,0.374-0.322,0.599-0.46s0.468-0.25,0.73-0.337c0.262-0.088,0.53-0.131,0.805-0.131c0.36,0,0.663,0.051,0.912,0.15
	c0.249,0.101,0.452,0.241,0.611,0.421c0.16,0.18,0.273,0.394,0.345,0.643c0.072,0.248,0.107,0.521,0.107,0.817
	c0,0.189-0.012,0.379-0.033,0.566c-0.021,0.188-0.049,0.374-0.086,0.56L181.402,260.948z"/>
<path fill="#FFFFFF" d="M191.166,256.253c0,0.38-0.036,0.771-0.106,1.174c-0.072,0.401-0.186,0.795-0.338,1.178
	c-0.154,0.384-0.351,0.743-0.592,1.079c-0.24,0.335-0.529,0.632-0.863,0.889c-0.336,0.256-0.722,0.458-1.156,0.606
	c-0.432,0.147-0.922,0.222-1.467,0.222c-0.533,0-0.994-0.063-1.383-0.187s-0.714-0.307-0.972-0.547
	c-0.261-0.241-0.453-0.536-0.58-0.889c-0.127-0.352-0.19-0.755-0.19-1.21c0-0.381,0.037-0.771,0.107-1.174
	c0.072-0.401,0.184-0.793,0.337-1.174c0.154-0.381,0.351-0.741,0.591-1.082c0.241-0.342,0.529-0.639,0.865-0.893
	c0.335-0.254,0.721-0.455,1.154-0.604c0.434-0.146,0.923-0.222,1.467-0.222c0.534,0,0.996,0.062,1.384,0.187
	c0.39,0.124,0.714,0.307,0.972,0.547c0.26,0.241,0.453,0.537,0.58,0.889S191.166,255.798,191.166,256.253 M189.103,256.388
	c0-0.223-0.021-0.419-0.066-0.591s-0.119-0.317-0.223-0.437c-0.103-0.119-0.234-0.21-0.396-0.274
	c-0.161-0.063-0.357-0.095-0.59-0.095c-0.266,0-0.503,0.052-0.715,0.155c-0.211,0.103-0.4,0.241-0.567,0.416
	s-0.312,0.377-0.433,0.606c-0.121,0.23-0.221,0.472-0.301,0.726c-0.08,0.255-0.138,0.512-0.174,0.773
	c-0.037,0.263-0.057,0.512-0.057,0.75c0,0.222,0.021,0.42,0.068,0.595c0.045,0.175,0.119,0.321,0.222,0.44s0.235,0.209,0.397,0.273
	c0.16,0.063,0.357,0.096,0.59,0.096c0.264,0,0.502-0.052,0.715-0.155c0.211-0.103,0.4-0.243,0.566-0.42s0.311-0.381,0.432-0.61
	c0.123-0.23,0.223-0.475,0.302-0.73c0.08-0.257,0.138-0.514,0.175-0.773C189.084,256.874,189.103,256.625,189.103,256.388
	 M189.144,252.35c-0.043,0.054-0.086,0.097-0.127,0.132c-0.043,0.034-0.099,0.062-0.168,0.083c-0.068,0.021-0.152,0.037-0.252,0.048
	c-0.102,0.011-0.229,0.016-0.382,0.016c-0.185,0-0.329-0.007-0.437-0.023c-0.105-0.017-0.18-0.042-0.223-0.075
	c-0.041-0.035-0.057-0.079-0.043-0.132s0.043-0.113,0.092-0.182l1.205-1.817c0.043-0.058,0.09-0.108,0.144-0.15
	c0.053-0.042,0.12-0.075,0.202-0.1c0.082-0.023,0.183-0.041,0.305-0.052c0.121-0.01,0.27-0.016,0.443-0.016
	c0.244,0,0.435,0.013,0.572,0.036c0.137,0.023,0.236,0.056,0.297,0.095c0.062,0.04,0.086,0.085,0.076,0.136
	c-0.012,0.05-0.039,0.104-0.088,0.162L189.144,252.35z"/>
<path fill="#FFFFFF" d="M198.21,250.653c0,0.031-0.004,0.083-0.013,0.154c-0.008,0.071-0.019,0.151-0.03,0.241
	c-0.015,0.09-0.031,0.183-0.053,0.278c-0.021,0.095-0.046,0.184-0.074,0.266c-0.031,0.081-0.063,0.147-0.1,0.198
	s-0.077,0.075-0.12,0.075c-0.03,0-0.071-0.008-0.123-0.024c-0.05-0.016-0.106-0.032-0.17-0.051s-0.136-0.035-0.218-0.052
	c-0.082-0.016-0.17-0.024-0.266-0.024c-0.17,0-0.316,0.024-0.44,0.072c-0.124,0.047-0.231,0.123-0.321,0.226
	c-0.09,0.104-0.167,0.236-0.23,0.401c-0.063,0.163-0.116,0.359-0.158,0.587l-0.119,0.603h1.285c0.08,0,0.135,0.025,0.167,0.075
	c0.03,0.05,0.047,0.131,0.047,0.242c0,0.053-0.003,0.121-0.011,0.206c-0.01,0.084-0.023,0.176-0.045,0.273
	c-0.021,0.099-0.047,0.194-0.078,0.289c-0.033,0.096-0.066,0.183-0.104,0.263c-0.037,0.079-0.08,0.144-0.132,0.194
	c-0.049,0.05-0.104,0.075-0.161,0.075h-1.302l-1.245,6.218c-0.091,0.439-0.214,0.826-0.369,1.159
	c-0.156,0.333-0.353,0.612-0.591,0.837c-0.237,0.225-0.521,0.394-0.845,0.507c-0.325,0.114-0.694,0.171-1.107,0.171
	c-0.273,0-0.505-0.021-0.689-0.064c-0.186-0.042-0.303-0.082-0.356-0.126c-0.026-0.031-0.046-0.066-0.056-0.104
	c-0.01-0.036-0.016-0.09-0.016-0.158c0-0.032,0.004-0.084,0.012-0.158c0.008-0.075,0.02-0.155,0.035-0.242
	c0.017-0.087,0.035-0.179,0.06-0.274c0.024-0.094,0.052-0.182,0.079-0.261c0.029-0.079,0.063-0.145,0.1-0.194
	c0.037-0.051,0.079-0.075,0.127-0.075c0.031,0,0.063,0.002,0.094,0.008c0.033,0.005,0.067,0.012,0.104,0.02
	c0.036,0.008,0.081,0.015,0.13,0.02c0.051,0.006,0.115,0.008,0.195,0.008c0.17,0,0.316-0.025,0.439-0.075
	c0.125-0.05,0.231-0.128,0.321-0.233c0.091-0.106,0.167-0.242,0.231-0.409c0.063-0.166,0.117-0.369,0.166-0.606l1.197-5.965h-0.889
	c-0.063,0-0.111-0.022-0.146-0.067s-0.051-0.131-0.051-0.259c0-0.052,0.004-0.121,0.012-0.206c0.008-0.084,0.021-0.174,0.039-0.27
	c0.019-0.095,0.041-0.191,0.068-0.289c0.026-0.098,0.061-0.186,0.104-0.262c0.041-0.076,0.088-0.141,0.138-0.19
	c0.052-0.05,0.11-0.075,0.179-0.075h0.873l0.15-0.785c0.084-0.444,0.209-0.836,0.373-1.175c0.162-0.338,0.365-0.621,0.607-0.849
	c0.239-0.227,0.522-0.397,0.848-0.511c0.324-0.114,0.693-0.171,1.107-0.171c0.137,0,0.274,0.007,0.412,0.019
	c0.137,0.015,0.262,0.033,0.372,0.057c0.111,0.023,0.209,0.052,0.294,0.083c0.084,0.032,0.143,0.063,0.174,0.096
	c0.032,0.026,0.055,0.063,0.067,0.111C198.204,250.525,198.21,250.584,198.21,250.653"/>
<path fill="#FFFFFF" d="M204.245,255.428c0,0.381-0.086,0.723-0.258,1.027c-0.172,0.304-0.439,0.565-0.801,0.785
	s-0.822,0.388-1.379,0.503c-0.559,0.117-1.225,0.175-1.996,0.175h-0.73c-0.02,0.122-0.037,0.242-0.047,0.361
	s-0.016,0.229-0.016,0.329c0,0.428,0.109,0.751,0.334,0.968c0.221,0.217,0.578,0.325,1.068,0.325c0.35,0,0.664-0.025,0.941-0.075
	c0.277-0.051,0.52-0.105,0.73-0.167c0.209-0.061,0.381-0.116,0.52-0.166c0.137-0.051,0.238-0.075,0.301-0.075
	s0.109,0.019,0.135,0.055c0.027,0.037,0.039,0.096,0.039,0.175c0,0.09-0.008,0.193-0.023,0.31s-0.039,0.231-0.068,0.345
	c-0.027,0.114-0.064,0.221-0.109,0.321s-0.098,0.177-0.154,0.23c-0.064,0.063-0.18,0.127-0.35,0.19s-0.373,0.122-0.611,0.174
	c-0.236,0.053-0.504,0.097-0.801,0.131s-0.598,0.052-0.904,0.052c-0.508,0-0.951-0.053-1.328-0.159
	c-0.379-0.104-0.694-0.268-0.948-0.483c-0.253-0.217-0.444-0.493-0.571-0.828c-0.127-0.337-0.191-0.734-0.191-1.194
	c0-0.354,0.035-0.733,0.101-1.139c0.065-0.404,0.173-0.804,0.321-1.197s0.339-0.771,0.57-1.13c0.232-0.36,0.516-0.676,0.846-0.948
	s0.713-0.49,1.146-0.654s0.928-0.246,1.482-0.246c0.482,0,0.896,0.057,1.242,0.171c0.346,0.113,0.629,0.264,0.852,0.452
	c0.223,0.188,0.389,0.401,0.496,0.643C204.19,254.927,204.245,255.174,204.245,255.428 M202.286,255.578
	c0-0.211-0.084-0.388-0.25-0.527s-0.408-0.21-0.725-0.21c-0.266,0-0.502,0.047-0.711,0.143c-0.209,0.095-0.393,0.224-0.551,0.385
	s-0.295,0.352-0.408,0.571c-0.115,0.22-0.205,0.453-0.273,0.7h0.666c0.422,0,0.777-0.026,1.063-0.083
	c0.285-0.055,0.516-0.13,0.689-0.225c0.174-0.096,0.303-0.208,0.381-0.337C202.247,255.865,202.286,255.727,202.286,255.578"/>
<path fill="#FFFFFF" d="M210.728,253.762c0,0.037-0.006,0.104-0.018,0.199c-0.01,0.095-0.025,0.206-0.047,0.332
	c-0.021,0.127-0.047,0.258-0.08,0.394c-0.031,0.134-0.066,0.26-0.105,0.376c-0.041,0.117-0.086,0.212-0.135,0.286
	c-0.051,0.074-0.105,0.111-0.162,0.111c-0.049,0-0.098-0.011-0.145-0.028c-0.047-0.019-0.1-0.037-0.158-0.056
	c-0.059-0.018-0.123-0.036-0.191-0.056c-0.068-0.019-0.146-0.027-0.236-0.027c-0.182,0-0.371,0.068-0.576,0.206
	c-0.203,0.138-0.396,0.319-0.584,0.544c-0.184,0.225-0.35,0.485-0.494,0.785c-0.146,0.299-0.25,0.612-0.314,0.939l-0.633,3.181
	c-0.012,0.053-0.037,0.1-0.076,0.139c-0.041,0.04-0.102,0.073-0.184,0.1s-0.188,0.046-0.32,0.06c-0.131,0.014-0.293,0.02-0.484,0.02
	c-0.195,0-0.354-0.006-0.479-0.02s-0.223-0.033-0.293-0.06c-0.072-0.026-0.119-0.06-0.141-0.1c-0.02-0.039-0.025-0.086-0.016-0.139
	l1.412-7.083c0.01-0.053,0.035-0.1,0.07-0.139c0.037-0.04,0.092-0.071,0.164-0.096c0.07-0.023,0.162-0.042,0.277-0.055
	c0.113-0.014,0.25-0.021,0.408-0.021c0.164,0,0.297,0.007,0.4,0.021c0.104,0.013,0.184,0.031,0.242,0.055
	c0.059,0.024,0.098,0.056,0.115,0.096c0.018,0.039,0.023,0.086,0.012,0.139l-0.223,1.125c0.129-0.226,0.275-0.435,0.441-0.625
	s0.344-0.355,0.531-0.496s0.381-0.25,0.582-0.329s0.4-0.119,0.596-0.119c0.078,0,0.16,0.005,0.24,0.016
	c0.084,0.011,0.16,0.024,0.232,0.04c0.07,0.016,0.135,0.035,0.189,0.06c0.057,0.023,0.1,0.049,0.131,0.075
	C210.71,253.643,210.728,253.693,210.728,253.762"/>
<path fill="#FFFFFF" d="M217.944,255.428c0,0.381-0.086,0.723-0.258,1.027c-0.172,0.304-0.439,0.565-0.801,0.785
	s-0.822,0.388-1.381,0.503c-0.557,0.117-1.223,0.175-1.994,0.175h-0.73c-0.021,0.122-0.037,0.242-0.047,0.361
	s-0.018,0.229-0.018,0.329c0,0.428,0.111,0.751,0.334,0.968s0.58,0.325,1.07,0.325c0.35,0,0.664-0.025,0.941-0.075
	c0.277-0.051,0.52-0.105,0.729-0.167c0.209-0.061,0.383-0.116,0.521-0.166c0.137-0.051,0.236-0.075,0.301-0.075
	c0.063,0,0.107,0.019,0.135,0.055c0.027,0.037,0.039,0.096,0.039,0.175c0,0.09-0.008,0.193-0.023,0.31s-0.039,0.231-0.068,0.345
	c-0.029,0.114-0.066,0.221-0.111,0.321c-0.043,0.101-0.096,0.177-0.154,0.23c-0.063,0.063-0.18,0.127-0.348,0.19
	c-0.17,0.063-0.373,0.122-0.611,0.174c-0.236,0.053-0.506,0.097-0.801,0.131c-0.297,0.034-0.598,0.052-0.906,0.052
	c-0.506,0-0.949-0.053-1.326-0.159c-0.379-0.104-0.695-0.268-0.949-0.483c-0.252-0.217-0.443-0.493-0.57-0.828
	c-0.127-0.337-0.191-0.734-0.191-1.194c0-0.354,0.033-0.733,0.1-1.139c0.066-0.404,0.174-0.804,0.322-1.197
	c0.146-0.394,0.338-0.771,0.57-1.13c0.232-0.36,0.516-0.676,0.846-0.948s0.713-0.49,1.145-0.654
	c0.436-0.164,0.928-0.246,1.484-0.246c0.48,0,0.895,0.057,1.242,0.171c0.346,0.113,0.629,0.264,0.852,0.452
	c0.221,0.188,0.387,0.401,0.496,0.643C217.89,254.927,217.944,255.174,217.944,255.428 M215.985,255.578
	c0-0.211-0.084-0.388-0.25-0.527s-0.408-0.21-0.727-0.21c-0.264,0-0.5,0.047-0.709,0.143c-0.209,0.095-0.393,0.224-0.551,0.385
	c-0.16,0.161-0.295,0.352-0.41,0.571c-0.113,0.22-0.205,0.453-0.271,0.7h0.666c0.422,0,0.775-0.026,1.063-0.083
	c0.285-0.055,0.516-0.13,0.689-0.225c0.174-0.096,0.303-0.208,0.381-0.337C215.946,255.865,215.985,255.727,215.985,255.578"/>
<path fill="#FFFFFF" d="M224.386,254.183c0,0.062-0.01,0.157-0.027,0.281c-0.02,0.124-0.047,0.25-0.084,0.377
	s-0.08,0.236-0.131,0.329s-0.107,0.139-0.17,0.139c-0.068,0-0.15-0.025-0.242-0.075c-0.094-0.051-0.205-0.105-0.338-0.167
	c-0.133-0.061-0.285-0.114-0.465-0.162c-0.176-0.048-0.383-0.071-0.623-0.071c-0.184,0-0.348,0.023-0.494,0.071
	s-0.266,0.112-0.361,0.194c-0.094,0.082-0.168,0.179-0.217,0.289c-0.051,0.111-0.076,0.23-0.076,0.356
	c0,0.165,0.066,0.302,0.203,0.413c0.135,0.111,0.303,0.216,0.504,0.313c0.199,0.098,0.416,0.199,0.648,0.306
	c0.234,0.105,0.451,0.238,0.652,0.396c0.199,0.158,0.367,0.352,0.498,0.579c0.133,0.228,0.199,0.513,0.199,0.856
	c0,0.402-0.076,0.773-0.23,1.115c-0.152,0.34-0.377,0.635-0.67,0.884s-0.65,0.443-1.072,0.583c-0.42,0.14-0.895,0.21-1.422,0.21
	c-0.254,0-0.498-0.019-0.727-0.055c-0.23-0.038-0.438-0.083-0.619-0.136s-0.336-0.113-0.465-0.183
	c-0.125-0.068-0.221-0.132-0.283-0.19c-0.043-0.042-0.074-0.087-0.092-0.134c-0.02-0.048-0.029-0.109-0.029-0.183
	c0-0.048,0.006-0.109,0.012-0.183c0.01-0.074,0.023-0.156,0.041-0.246s0.039-0.181,0.063-0.27c0.023-0.09,0.053-0.172,0.084-0.246
	c0.033-0.074,0.066-0.134,0.102-0.179c0.039-0.045,0.078-0.067,0.121-0.067c0.074,0,0.156,0.032,0.246,0.096
	c0.09,0.063,0.205,0.133,0.35,0.21c0.141,0.077,0.318,0.147,0.527,0.214c0.207,0.066,0.469,0.1,0.781,0.1
	c0.217,0,0.406-0.025,0.566-0.075c0.16-0.051,0.295-0.121,0.4-0.211s0.184-0.193,0.234-0.309c0.049-0.117,0.074-0.241,0.074-0.373
	c0-0.186-0.064-0.336-0.193-0.452s-0.293-0.225-0.488-0.326c-0.197-0.1-0.408-0.203-0.639-0.309s-0.443-0.235-0.639-0.389
	s-0.357-0.345-0.488-0.571c-0.129-0.228-0.193-0.513-0.193-0.856c0-0.375,0.072-0.725,0.213-1.047
	c0.145-0.323,0.354-0.604,0.627-0.845c0.275-0.241,0.609-0.429,1-0.563c0.393-0.135,0.836-0.202,1.332-0.202
	c0.223,0,0.439,0.015,0.646,0.043c0.209,0.029,0.396,0.068,0.564,0.114c0.166,0.049,0.313,0.103,0.436,0.16
	c0.125,0.058,0.213,0.116,0.266,0.175C224.356,253.966,224.386,254.056,224.386,254.183"/>
</svg>
