<?xml version="1.0" encoding="utf-8"?>
<!-- Generator: Adobe Illustrator 16.0.0, SVG Export Plug-In . SVG Version: 6.00 Build 0)  -->
<!DOCTYPE svg PUBLIC "-//W3C//DTD SVG 1.1//EN" "http://www.w3.org/Graphics/SVG/1.1/DTD/svg11.dtd">
<svg version="1.1" id="Capa_1" xmlns="http://www.w3.org/2000/svg" xmlns:xlink="http://www.w3.org/1999/xlink" x="0px" y="0px" viewBox="0 0 396 313" enable-background="new 0 0 396 313" xml:space="preserve">
<path fill="#F7C100" d="M168.002,296.677L15.837,178.976c-14.198-10.982-14.198-28.955,0-39.937L168.002,21.337
	c14.198-10.983,37.431-10.983,51.628,0l152.164,117.702c14.199,10.982,14.199,28.954,0,39.937L219.631,296.677
	C205.434,307.659,182.2,307.659,168.002,296.677"/>
<path fill="none" stroke="#010202" stroke-width="10.058" stroke-miterlimit="10" d="M193.816,291.716
	c-5.222,0-10.105-1.551-13.749-4.371L27.902,169.644c-7.582-5.865-7.582-15.408,0-21.273L180.067,30.67
	c3.644-2.82,8.527-4.372,13.749-4.372c5.223,0,10.105,1.552,13.75,4.372l152.166,117.701c7.582,5.865,7.582,15.408,0,21.273
	L207.566,287.345C203.922,290.165,199.039,291.716,193.816,291.716z"/>
<path fill="#010202" d="M196.371,172.845l0.025-66.261h17.414c7.395,0,12.545,0.34,15.457,1.018
	c2.912,0.679,5.424,1.819,7.535,3.418c2.385,1.81,4.217,4.118,5.5,6.924s1.924,5.9,1.924,9.279c0,5.129-1.26,9.301-3.779,12.514
	s-6.193,5.348-11.02,6.404l24.264,26.704h-20.412l-21.414-25.934l1.383,25.934H196.371z M211.865,137.903h3.35
	c3.893,0,6.736-0.664,8.531-1.991c1.795-1.328,2.693-3.41,2.693-6.247c0-3.319-0.838-5.68-2.512-7.083
	c-1.674-1.403-4.488-2.104-8.441-2.104h-3.621V137.903z"/>
<path fill="#010202" d="M247.814,106.968l21.406,65.876h21.152l-4.461-11.086h24.082l10.832,11.086h20.643l-70.846-65.876H247.814z
	 M271.389,124.425l24.082,23.572h-15.164L271.389,124.425z"/>
<rect x="102.642" y="131.554" fill="#010202" width="18.571" height="41.626"/>
<path fill="#010202" d="M134.93,173.181v-66.598h18.479c7.618,0,12.941,0.243,15.967,0.728c3.025,0.485,5.629,1.319,7.811,2.502
	c2.488,1.365,4.385,3.192,5.691,5.481c1.305,2.29,1.958,4.936,1.958,7.938c0,3.792-0.976,6.801-2.926,9.03
	c-1.951,2.229-5.062,3.92-9.331,5.072c4.792,0.364,8.54,2.025,11.243,4.981c2.703,2.957,4.055,6.908,4.055,11.85
	c0,3.549-0.76,6.673-2.28,9.371c-1.521,2.699-3.695,4.793-6.521,6.277c-2.304,1.215-5.146,2.078-8.525,2.594
	c-3.38,0.516-8.91,0.773-16.59,0.773H134.93z M151.98,133.195h3.687c4.546,0,7.664-0.493,9.354-1.479
	c1.689-0.985,2.535-2.691,2.535-5.117c0-2.517-0.792-4.284-2.373-5.3c-1.583-1.015-4.663-1.524-9.24-1.524h-3.963V133.195z
	 M151.98,159.579h6.452c4.361,0,7.449-0.538,9.262-1.615c1.812-1.076,2.719-2.873,2.719-5.391c0-2.789-0.829-4.738-2.489-5.845
	c-1.659-1.107-4.731-1.661-9.216-1.661h-6.728V159.579z"/>
<path fill="#FFFFFF" d="M74.028,224.843v-0.379c-19.885-2.375-35.352-19.346-35.352-39.861V95.261H21.104
	c-3.725,0-7.016-1.992-8.588-5.2c-1.463-2.988-1.093-6.491,0.965-9.145l39.446-50.854c1.802-2.323,4.58-3.655,7.623-3.655
	s5.821,1.332,7.623,3.655l39.446,50.854c2.058,2.654,2.428,6.157,0.965,9.145c-1.572,3.208-4.863,5.2-8.588,5.2h-16.19v72.726
	c0.466,6.221,5.441,11.225,11.658,11.727h295.347l-44.057,45.129H74.028z"/>
<path fill="#1C1C1C" d="M114.079,184.603h-16.35h-2.447c-8.79-0.604-15.805-7.646-16.365-16.447v-2.268v-16.541V90.373h21.079
	c3.701,0,5.875-3.734,3.76-6.461l-19.098-24.62L64.309,33.059c-1.822-2.351-5.697-2.351-7.52,0L36.44,59.292l-19.097,24.62
	c-2.115,2.727,0.059,6.461,3.76,6.461h22.462v94.229c0,19.473,15.785,35.258,35.257,35.258c0.032,0,0.064-0.002,0.095-0.002v0.096
	h265.776l34.514-35.352H114.079z"/>
<path fill="none" stroke="#FFFFFF" stroke-width="3.265" stroke-linecap="round" stroke-miterlimit="10" stroke-dasharray="29.68,29.68" d="
	M337.605,203.128H95.744v-0.096H78.918c-0.064,0-0.127,0-0.19,0c-10.119-0.051-18.336-8.299-18.336-18.43V67.904"/>
<path fill="#BC1826" d="M121.213,116.829c0-5.128-4.157-9.286-9.285-9.286c-5.129,0-9.286,4.158-9.286,9.286
	s4.157,9.286,9.286,9.286C117.056,126.115,121.213,121.957,121.213,116.829"/>
</svg>
